<svg width="96" height="96" viewBox="0 0 96 96" fill="none" xmlns="http://www.w3.org/2000/svg">
<path d="M62.4564 12.9647C62.4564 12.9647 62.3878 12.7246 62.3192 12.5874C62.2163 12.3473 62.0449 12.1415 61.9763 11.8671C62.1478 11.73 62.4221 11.5585 62.4221 11.4213C62.4221 10.1179 62.4221 8.88322 62.4221 7.6485V5.41913C62.4221 4.1844 62.0449 3.08687 61.2217 2.26372C60.8444 1.88644 60.33 1.78354 59.8155 1.68065C59.3353 1.54346 58.7523 1.57776 58.3407 1.47486C57.9977 1.37197 57.4146 1.20048 57.1745 1.13188C56.9345 1.06329 56.6944 1.09758 56.4543 1.37197C56.0427 1.26907 55.5968 1.20048 55.1853 1.02899C54.3278 0.686009 53.539 1.50916 52.5786 1.13188C51.8241 0.823201 51.5497 1.02899 50.6922 1.02899C50.2807 1.02899 49.8005 1.09758 49.3889 1.26907C48.5658 1.64635 48.3257 1.64635 48.2914 1.26907C48.2914 0.926095 48.0856 1.09758 47.7426 1.06329C47.4682 1.06329 47.2281 1.06329 46.8166 1.06329C46.3707 1.06329 45.5132 0.788903 45.3418 1.23478C45.2046 1.57776 44.8616 1.68065 44.5872 1.37197C44.0041 0.720307 43.9698 0.891797 43.181 1.06329C42.838 1.13188 42.495 1.40627 42.1177 1.40627C41.8434 1.40627 41.5347 1.06329 41.2946 1.09758C40.6429 1.20048 40.0599 1.33767 39.4082 1.09758C38.9966 0.99469 38.928 0.99469 38.2421 0.99469C37.5561 0.99469 36.8702 1.02899 36.3214 1.26907C35.1553 1.64635 34.1949 2.64099 33.749 3.80712C33.5775 4.253 33.4404 4.63027 33.3718 5.11045C33.3032 5.55632 33.3032 6.24228 33.3718 6.41377C33.5432 7.03113 33.4404 7.30552 33.4404 7.75139C33.4404 8.71173 33.1317 9.74067 33.7147 10.6667C33.5775 11.2498 33.3032 11.7643 33.3718 12.3816C33.4404 12.8618 33.3718 13.8907 33.7147 14.268C33.9548 14.5424 33.8519 15.0569 34.4007 15.1255C34.4007 14.9883 34.8809 14.9883 34.9152 15.1255C35.2924 15.1255 35.7383 15.0569 35.9098 15.537C35.9098 15.537 35.9098 15.537 35.9441 15.537L35.9784 15.5713C35.8755 15.6399 36.047 15.8114 36.047 15.8114C36.1499 16.1887 35.8412 16.5317 36.047 16.8061C36.2185 17.0118 36.4586 16.8404 36.733 16.9432C36.733 16.9432 37.0073 18.0751 37.5561 17.9722C37.7619 17.9379 37.8648 17.6635 38.1735 17.8007C39.0652 18.2466 39.9227 18.2466 40.7801 17.6978C41.1574 17.4577 41.7062 17.8007 42.1177 17.6978C42.3235 17.6292 42.5293 17.6292 42.7351 17.6978C42.9409 17.7664 43.2153 18.0408 43.3182 17.9722C43.8326 17.7321 44.2785 17.9722 44.7587 17.9722C45.3418 17.9722 46.9881 17.492 46.9881 17.5606C46.9881 17.6978 47.0566 17.9036 47.1595 17.9722C47.2624 18.0751 47.4339 18.1094 47.5711 18.1094C48.017 18.1094 48.4286 18.0408 48.8744 17.8693C49.2174 17.7321 49.7662 18.2123 50.1092 18.0751C50.6236 17.8693 51.0695 18.0751 51.5497 18.0751C51.5497 18.0751 51.8927 18.1437 51.9956 18.0751C52.5443 17.7321 53.0931 17.9379 53.6762 18.0751C54.6365 18.2123 55.3911 17.8007 56.3857 17.835C56.6601 17.835 56.9688 17.9036 57.346 18.0065C57.9634 18.0751 58.6494 18.178 59.1638 18.178C59.6097 18.178 61.5304 18.4524 61.6333 18.0065C61.6333 17.9379 61.8734 17.9379 62.2164 18.0065C62.2849 17.5263 62.4221 16.8403 62.3878 16.0858C62.3535 15.3312 62.3192 14.5767 62.3878 13.8907C62.3878 13.6163 62.3878 13.342 62.3878 13.1019L62.4564 12.9647ZM34.7437 6.75675C34.7437 6.75675 34.5379 6.55096 34.5379 6.44807C34.5379 6.37947 34.5379 6.34517 34.6065 6.27658H34.8123L34.9495 6.41377L34.7437 6.75675ZM60.0899 3.60134C60.0899 3.60134 59.9527 3.60134 59.8841 3.60134C59.8841 3.53274 59.8498 3.42985 59.8841 3.39555C60.0899 3.29265 60.1928 3.39555 60.1242 3.60134H60.0899ZM55.9398 2.67529C55.9398 2.67529 56.0427 2.74389 56.077 2.81248C56.0427 2.84678 55.9741 2.94967 55.9741 2.94967C55.7683 2.88108 55.7683 2.77818 55.9741 2.67529H55.9398ZM55.4597 1.68065C55.4597 1.68065 55.5625 1.74925 55.5968 1.78354L55.4939 1.95503C55.4939 1.95503 55.3911 1.88644 55.3568 1.81784C55.3568 1.78354 55.4254 1.68065 55.4597 1.68065ZM54.0877 2.67529C54.0877 2.67529 54.1906 2.74389 54.2249 2.81248C54.1906 2.84678 54.122 2.94967 54.122 2.94967C53.9162 2.88108 53.9162 2.77818 54.122 2.67529H54.0877ZM50.8637 2.19512L51.0695 2.5381L50.898 2.91538C50.898 2.91538 50.7265 2.67529 50.7265 2.5724C50.7265 2.4352 50.8294 2.33231 50.898 2.19512H50.8637ZM48.6344 3.22406L48.7372 3.49844H48.4286C48.4286 3.39555 48.5658 3.32695 48.6344 3.22406ZM41.7062 2.67529C41.7062 2.67529 41.8091 2.74389 41.8434 2.77818L41.7405 2.94967C41.7405 2.94967 41.6033 2.88108 41.6033 2.81248C41.6033 2.77818 41.6719 2.67529 41.7062 2.67529ZM40.3342 3.18976C40.3342 3.18976 40.4371 3.25836 40.4714 3.29265L40.3685 3.46414C40.3685 3.46414 40.2657 3.39555 40.2314 3.32695C40.2314 3.29265 40.3 3.18976 40.3342 3.18976ZM39.2367 2.12652C39.2367 2.12652 39.4082 2.26372 39.4768 2.36661C39.3396 2.4352 39.2367 2.5381 39.1338 2.5038C39.0652 2.5038 38.9623 2.36661 38.8937 2.26372C38.9966 2.22942 39.1338 2.12652 39.2367 2.12652ZM35.6697 3.46414C35.8755 3.32695 35.9784 3.18976 36.2528 3.08687C36.2528 3.32695 36.4586 3.25836 36.4586 3.49844C36.4586 3.70423 36.1842 3.87572 36.0127 3.80712C35.8069 3.70423 35.7383 3.80712 35.5325 3.66993C35.6011 3.60134 35.6354 3.49844 35.704 3.46414H35.6697ZM35.9098 6.10509C35.9098 6.10509 35.8412 6.41377 35.5668 6.20798L35.6697 6.13938H35.9098V6.10509ZM35.0524 3.66993C35.0524 3.66993 35.361 3.66993 35.4982 3.66993C35.3267 3.77283 35.1896 4.253 35.0524 3.66993ZM35.7383 14.0965C35.7383 14.0965 35.6011 14.0279 35.6011 13.9936C35.6697 13.8221 35.7726 13.7878 35.8412 13.9936C35.8412 13.9936 35.7726 14.0622 35.7383 14.1308V14.0965ZM35.7383 12.7246L35.5668 12.5874C35.5668 12.5874 35.6697 12.4502 35.704 12.4502C35.7383 12.4502 35.8412 12.5188 35.8412 12.5874C35.8412 12.6217 35.7726 12.6903 35.704 12.7246H35.7383ZM35.9441 8.91752C35.704 8.91752 35.4296 8.71173 35.4296 8.57454C35.4296 8.57454 35.4982 8.50595 35.5325 8.50595C35.7726 8.50595 35.9784 8.64314 36.0127 8.81463V8.88322C36.0127 8.88322 35.9784 8.91752 35.9441 8.91752ZM40.3685 16.9432C40.3685 16.9432 40.1971 16.7032 40.1971 16.6003C40.1971 16.4631 40.3 16.3602 40.3685 16.223C40.4371 16.3259 40.54 16.4631 40.54 16.566C40.54 16.7032 40.4371 16.8061 40.3685 16.9432ZM42.7351 15.6056C42.7351 15.6056 42.7351 15.6056 42.7008 15.5713H42.8037C42.8037 15.5713 42.7694 15.6056 42.7351 15.6056ZM45.8562 15.9486L45.6504 15.5713C45.6504 15.5713 46.1649 15.5713 45.8562 15.9829V15.9486ZM49.5261 16.4288C49.5261 16.4288 49.4232 16.3602 49.3889 16.3259L49.4918 16.1544C49.4918 16.1544 49.629 16.223 49.629 16.2916C49.629 16.3259 49.5604 16.4288 49.5261 16.4288ZM50.898 15.9143C50.898 15.9143 50.8294 15.8457 50.7608 15.8114C50.7608 15.7771 50.8294 15.7085 50.8637 15.6742L50.9323 15.9143H50.898ZM56.6258 17.3891L56.4886 17.2519C56.4886 17.2519 56.5572 17.1147 56.6258 17.1147C56.6601 17.1147 56.7287 17.1833 56.763 17.2519C56.763 17.2862 56.6944 17.3548 56.6601 17.3891H56.6258ZM60.1928 4.76747H60.0213C60.0213 4.76747 60.0556 4.56168 60.1242 4.52738C60.1585 4.52738 60.2614 4.52738 60.2957 4.56168C60.2957 4.59598 60.2614 4.69887 60.2271 4.76747H60.1928ZM60.7072 8.50595C60.7072 8.50595 60.6043 8.43735 60.57 8.40305C60.6043 8.36875 60.6729 8.26586 60.6729 8.26586C60.8787 8.33446 60.8787 8.40305 60.6729 8.50595H60.7072ZM61.5647 11.5928C61.5647 11.5928 61.4961 11.3184 61.5304 11.1812C61.5304 11.1126 61.6333 11.0783 61.7019 11.0097C61.7705 11.1126 61.8734 11.2498 61.942 11.3527C61.9763 11.4899 61.942 11.6271 61.942 11.7985C61.8048 11.73 61.6333 11.6957 61.5647 11.5928Z" fill="#F45436"/>
<path d="M88.9931 20.4074C88.7873 19.893 88.5472 19.55 88.41 19.3099C88.2042 18.9669 88.2042 18.7954 88.41 18.6582C88.7187 18.521 88.3414 18.1438 88.1699 17.8351L87.6554 16.9776C87.4154 16.5661 87.0381 15.7086 86.5922 15.8801C86.2492 15.983 85.9406 15.7772 86.0091 15.3999C86.1463 14.5425 85.9748 14.6111 85.2889 14.1309C84.9802 13.9251 84.5686 13.8565 84.2943 13.6164C84.0885 13.4449 84.1228 12.9648 83.917 12.8276C83.3682 12.4503 82.8537 12.1759 82.4422 11.5586C82.0649 10.9755 81.3446 10.6668 80.6587 10.2552C79.8698 9.77506 78.5665 9.0891 77.4347 9.22629C76.5772 9.29489 75.7541 9.36348 74.9652 10.1866L74.6908 10.5296C74.3821 10.9069 74.2449 11.0098 74.1763 11.1127L73.8334 11.4214C73.1817 12.0387 72.3243 12.5189 72.1185 13.5135C71.6383 13.7879 71.1238 13.9251 70.7466 14.4053C70.6437 14.5425 70.4722 14.714 70.3007 14.9198C69.992 14.7483 69.649 14.4739 69.306 14.4396C66.4593 13.9594 65.9105 14.5768 64.4357 14.0966C62.9266 13.6507 60.5601 14.1652 60.1485 14.4396C59.9084 14.5768 59.4968 14.6797 59.291 14.5425C58.5365 13.9251 57.7133 14.1309 56.8902 14.1309C56.3071 14.1309 55.724 14.0623 55.1753 14.4396C54.5922 14.8512 54.1463 13.9594 53.4947 14.0623C53.0145 14.1652 52.6372 14.2681 52.3285 14.6797C52.2257 14.8169 52.0199 14.9884 51.9856 14.9541C51.2996 14.2338 50.3393 14.8855 49.619 14.4053C49.1731 14.0966 48.8302 14.0966 48.4186 14.4396C47.9384 14.8169 47.6297 14.0623 47.1839 14.1652C46.9781 14.1995 46.8066 14.371 46.6351 14.5082C46.4636 14.6454 46.2921 14.9198 46.1206 14.9198C45.9491 14.9198 45.7776 14.6111 45.6061 14.4739C45.4347 14.3367 45.2289 14.1652 45.0231 14.1309C44.6115 14.0623 44.6115 13.9937 44.44 14.2338C44.1313 14.6454 43.5483 14.6797 43.2739 14.2338C43.0681 13.8908 42.9309 14.0623 42.485 14.0623C40.9073 14.0623 40.3929 14.5768 38.8837 14.1995C38.3007 14.0623 37.4089 14.6797 37.3403 14.5768C36.9631 14.6454 36.5858 15.2627 36.2085 14.5768C36.1399 14.4396 36.0027 14.3367 35.8655 14.3024C35.7969 14.3024 35.6254 14.4053 35.5911 14.5082C35.5911 14.6454 34.6651 14.9541 33.8762 14.3367C33.8076 14.3024 31.6469 14.1652 31.6126 14.1652C31.3382 14.2681 31.0638 14.4739 30.7894 14.4396C30.4464 14.371 30.2407 14.0623 29.7262 14.2338C29.1774 14.4396 28.5601 14.4053 27.9427 14.371C27.2224 14.3024 26.2964 14.4396 25.4046 14.6797C25.096 14.1309 24.6501 13.7193 23.9298 13.5821C23.5183 13.5135 23.4154 12.9305 23.0381 12.7247C22.8666 12.6218 22.7294 12.4846 22.6265 12.3131C22.5236 12.1416 22.5579 11.7643 22.4207 11.73C21.872 11.5243 21.9062 11.1813 21.3575 10.7011C21.0831 10.461 20.6029 10.0837 20.0542 9.87795V9.60357C19.4025 9.26059 18.545 9.1577 17.8591 9.43208C16.5901 10.0494 16.35 10.3924 16.1099 9.98085C15.9727 9.67217 15.5954 10.0494 15.2867 10.2209L14.4293 10.7354C14.0177 10.9755 13.1603 11.3528 13.3318 11.7986C13.4347 12.1416 13.2289 12.4503 12.8516 12.3817C11.9941 12.2445 12.0627 12.416 11.5826 13.102C11.3768 13.4106 11.3082 13.8222 11.0681 14.0966C10.8966 14.3024 10.4164 14.2681 10.2792 14.4739C9.90196 15.0226 9.62758 15.5371 9.01021 15.9487C8.42715 16.326 8.11847 17.0462 7.70689 17.7322C7.22672 18.521 6.54076 19.8244 6.67795 20.9905C6.74655 21.8479 6.81514 22.6711 7.6383 23.4599L7.98127 23.7343C8.35855 24.043 8.46145 24.1802 8.56434 24.2488L8.87302 24.5918C9.49039 25.2434 9.97056 26.1009 10.9652 26.3067C11.2396 26.7868 11.3768 27.3013 11.8569 27.6786C11.9255 27.7129 11.9941 27.7815 12.0627 27.8501C11.8912 28.3989 11.8569 29.0162 11.8912 29.565C11.8912 30.3195 12.1313 30.9712 11.6512 31.6915C11.514 31.8972 11.6512 32.3774 11.7541 32.6518C11.8569 32.8919 11.8569 33.0634 11.7198 33.2349C11.4797 33.5092 11.5826 33.8179 11.7883 34.058C12.097 34.4353 11.9598 34.744 11.7198 35.087C11.4797 35.4299 11.4454 35.8072 11.6855 36.1502C11.9941 36.5618 12.0627 36.939 11.7198 37.3849C11.7198 37.3849 11.8569 37.5907 11.9598 37.6593C12.097 37.7622 11.7883 38.2424 11.9598 38.311C11.3768 38.8597 12.44 39.3399 11.8912 39.7858C11.2396 40.2659 11.6855 40.6775 12.0627 42.6325C12.1313 42.9069 11.8569 42.9755 11.9941 43.2499C12.3371 43.8672 11.8226 43.9015 11.7198 44.2102C11.6855 44.3474 11.5826 44.5532 11.6512 44.6218C12.0627 45.102 11.6855 45.685 11.9941 46.2338C12.2685 46.714 12.1656 47.3999 12.2685 47.9487C12.3028 48.1545 12.4743 48.326 12.2685 48.5318C12.097 48.7718 12.0284 49.0805 11.8226 49.3206C11.4454 49.7665 11.6512 50.0752 11.9941 50.4867C12.1313 50.6582 12.2685 51.207 11.9255 51.9273C11.6512 52.2359 11.3768 52.6132 11.5826 52.9219C12.097 53.6422 11.6855 54.2938 11.5826 54.9798C11.4797 55.4942 11.5826 55.9744 11.9598 56.5232C12.0627 56.6604 11.514 57.5521 11.5826 58.8211C11.5826 59.3356 11.9941 59.8158 11.9941 60.296C11.9941 60.7761 11.6855 61.2563 11.5826 61.7708C11.514 61.9766 11.514 62.2509 11.5826 62.4224C11.8569 62.9712 11.7198 63.7601 11.6855 64.0344C11.6512 64.3088 11.9598 65.1663 12.0627 65.7493C12.097 66.0923 12.4743 66.4353 12.44 66.7783C12.44 67.1898 12.1313 67.6014 12.0627 68.013C11.9598 68.4932 11.514 69.1448 12.3371 69.282C12.5772 69.3163 12.5772 69.4878 12.3371 69.625C12.1313 69.7622 12.1999 69.968 12.1999 70.1052C12.3371 71.4428 12.6458 71.9573 12.7487 73.3635C12.7487 73.4664 13.3661 74.0837 13.5375 74.118C13.7433 74.2209 14.1206 74.7354 13.9148 74.8726C13.2289 75.3528 13.2289 75.3528 13.3661 75.6957C13.5718 76.2102 13.9148 76.5532 14.3264 76.8276C14.1892 77.5135 14.3607 78.028 14.9438 78.2681C15.1153 78.371 15.2524 78.6454 15.3896 78.8512C15.9384 79.7429 15.9041 79.7772 16.2128 79.9144C16.5215 80.0516 16.8987 80.0859 17.1388 80.2917C17.4132 80.5318 17.4818 81.1148 17.7905 81.1834C18.305 81.3206 18.2364 82.0409 18.888 81.9723C19.4711 81.8694 19.2653 82.864 19.8827 82.8297C20.5686 83.2413 21.2546 83.6872 21.9748 84.0302C22.4207 83.893 22.9009 84.0302 22.798 84.4417C22.7294 84.6818 22.9695 84.9562 23.724 85.162C24.067 85.2306 24.3757 85.4021 24.6844 85.505C24.6844 85.2992 25.2332 85.2992 25.1646 85.6422C25.679 85.6764 26.1592 85.745 26.6394 85.7793C27.0166 85.7793 27.3939 85.9508 27.7369 85.8479C28.1485 85.745 28.4572 86.3281 28.8344 85.9165C29.246 86.1223 29.7605 86.2938 30.1378 86.5339C30.6865 86.8426 31.1324 85.9851 31.5783 86.3624C32.127 86.774 32.5386 86.5339 32.9845 86.2595C33.2932 86.0537 33.1903 86.3281 33.499 86.0537C33.8076 85.8136 34.1506 85.8822 34.2192 86.2252C34.3907 86.8769 35.1796 86.3624 35.6597 86.2938C35.9341 86.2938 36.2428 86.1909 36.5172 86.0194C36.9631 85.7793 37.1688 86.3967 37.5461 86.2938C37.6147 86.2938 37.7176 86.2938 37.7519 86.2938C38.3007 85.8822 38.8151 86.1223 39.3982 86.2938C39.7755 86.431 39.7412 85.9165 40.4614 86.0537C40.8387 86.1223 41.1131 86.2595 41.559 86.2938C42.828 86.2938 43.7541 86.2938 45.3661 86.2938C45.7433 86.2938 45.9491 85.8136 46.395 86.0194C47.321 86.5339 48.2814 86.2595 49.2417 86.1909C49.4475 86.1909 49.3789 86.0194 49.3789 85.8136C49.3103 85.4021 50.0306 86.1566 50.5451 86.1909C50.7851 86.1909 51.8827 86.1909 52.0885 85.9508C52.2257 85.8479 52.3628 85.8822 52.5 85.9165C52.6715 86.2252 53.0145 86.1909 53.2546 86.3967C53.6319 86.7054 54.6265 86.6711 55.1067 86.7397C55.724 86.8083 56.2385 86.5339 56.7873 86.3967C57.7133 86.9798 58.708 86.6711 59.634 86.6711C60.5944 86.6711 61.1431 87.2542 62.0349 86.5682C62.6865 86.9112 63.4754 86.8769 64.2299 86.774H64.5729C65.0874 86.774 66.1849 87.3913 66.4593 86.6711C67.9684 86.3967 68.2771 86.5682 68.8945 86.4996C70.2664 86.2938 71.604 85.8822 72.873 85.2992C73.216 85.1277 73.4218 84.8533 73.8677 84.7161C75.1024 84.4074 76.3714 83.7901 77.0574 82.6582C77.4004 82.1438 77.9834 82.3152 78.2578 81.9037C78.5322 81.4921 78.7723 81.0462 78.9781 80.6003C78.9781 80.5318 79.1152 80.5318 79.1839 80.4975C79.6297 80.3946 80.007 80.2231 80.007 79.6743C80.007 79.1598 80.2814 78.9198 80.7273 78.7826C80.9331 77.9251 81.8591 77.6164 82.1335 76.8276C82.4422 76.0044 82.8537 75.2499 83.1281 74.4267C83.4368 73.6036 83.5397 72.7461 83.8484 71.923C84.0542 71.0998 84.1571 70.2081 83.9856 69.5221C83.8141 68.8362 83.3339 69.0762 83.3682 68.939C83.4368 68.5275 83.6769 68.1845 83.8827 67.8758C84.3628 67.1898 84.6715 66.8126 83.9856 66.2981C83.6426 66.058 83.6769 65.8179 83.9856 65.5778C84.3971 65.2692 84.1913 64.6861 84.1913 64.2059C84.1913 63.0055 84.1913 62.4567 84.1913 61.2906C84.1913 61.0848 84.0542 60.879 83.9513 60.6732C83.5397 60.0216 83.5397 60.0216 83.6769 59.7472C84.1571 58.924 84.4657 58.1352 83.8484 57.2091C83.5054 56.6947 83.6083 56.0773 83.9856 55.4942C84.3285 54.9798 84.2257 54.4996 83.7455 54.088C83.6426 53.9851 83.5054 53.8822 83.4025 53.745C83.1281 53.4021 83.5397 53.4364 83.7112 53.3335C83.8141 53.2649 83.9856 53.0934 83.9856 53.0591C83.4025 52.133 83.7798 51.1384 83.6769 50.1781C83.8141 50.0409 84.1228 49.8694 84.0885 49.7665C83.917 49.1491 83.6769 48.5318 83.4025 47.9144C83.3339 47.7429 83.2653 47.5714 83.4711 47.5714C84.3971 47.5371 83.7455 46.9198 83.8827 46.6111C84.1228 46.0623 84.1228 45.2734 84.0542 44.5875C83.9856 43.9015 83.8827 43.3528 83.8827 43.3528C84.1914 42.461 84.2943 40.3688 83.9513 39.4771C83.8141 39.1341 83.6426 38.8597 83.8827 38.4825C84.0542 38.1738 84.0885 37.7965 84.1571 37.4192C84.1571 37.3506 84.1571 37.282 84.1571 37.2134C84.1571 36.7676 83.7112 37.1448 83.6426 36.5275C83.574 36.0816 84.2599 36.0473 84.1228 35.67C83.9856 35.2584 83.6083 34.9155 83.7112 34.4353C83.8827 34.2981 84.1228 34.1609 84.1571 33.9894C84.2943 33.1663 83.9856 32.4117 83.7112 31.4857C83.5397 30.834 83.917 30.1138 83.8827 29.7022C83.8827 29.0848 83.7455 28.4674 83.6083 27.8501C84.1228 27.5414 84.5343 27.0955 84.6715 26.4096C84.7401 25.998 85.3232 25.8951 85.529 25.5178C85.6319 25.3463 85.7691 25.2091 85.9406 25.1062C86.112 25.0034 86.4893 25.0377 86.5236 24.9005C86.7294 24.3517 87.0724 24.386 87.5526 23.8372C87.7926 23.5628 88.1699 23.0827 88.3757 22.5339H88.6501C88.9931 21.8822 89.096 21.0248 88.8216 20.3388L88.9931 20.4074ZM7.87838 20.3731C7.87838 20.3731 8.15277 20.2016 8.32425 20.133C8.18706 20.2702 8.22136 20.7504 7.87838 20.3731ZM8.94162 23.0827C8.94162 23.0827 8.70153 23.0141 8.63294 22.9455C8.56434 22.8769 8.56434 22.8083 8.53004 22.7054L8.70153 22.5682L8.94162 22.6711L9.04451 22.9798L9.11311 23.117L8.94162 23.0484V23.0827ZM8.87302 19.9959C8.63294 19.9959 8.59864 20.0987 8.35855 20.0987C8.35855 20.0302 8.39285 19.9273 8.46145 19.8587C8.59864 19.6529 8.63294 19.5157 8.83872 19.3099C8.94162 19.5157 9.11311 19.3442 9.216 19.55C9.3189 19.7215 9.14741 19.9616 8.90732 19.9959H8.87302ZM9.35319 22.1223L9.42179 22.0194L9.59328 21.8822C9.59328 21.8822 9.73047 22.1223 9.35319 22.1223ZM9.66188 17.1834C9.66188 17.1834 9.66188 16.909 9.76477 16.8404C9.83336 16.7718 9.97056 16.8061 10.0735 16.8061C10.0735 16.9433 10.0735 17.0805 9.97056 17.1834C9.90196 17.252 9.76477 17.1834 9.62758 17.2177L9.66188 17.1834ZM10.0392 19.5157C10.0392 19.5157 9.90196 19.3099 9.93626 19.2413C9.97056 19.1384 10.1077 19.1041 10.2106 19.0355C10.2449 19.1384 10.3478 19.2756 10.3135 19.3442C10.2792 19.4471 10.142 19.4814 10.0392 19.55V19.5157ZM84.0542 18.3838C84.0542 18.3838 84.2943 18.4524 84.3628 18.5553C84.3971 18.6239 84.3628 18.7611 84.2943 18.864C84.1914 18.7954 84.0542 18.7954 83.9856 18.7268C83.9513 18.6582 84.0199 18.521 84.0542 18.4181V18.3838ZM82.9223 14.2681C82.9223 14.2681 83.0595 14.1995 83.0938 14.2681C83.0938 14.2681 83.0938 14.371 83.0938 14.4396H82.888C82.888 14.4396 82.888 14.3367 82.888 14.3024L82.9223 14.2681ZM81.8248 13.8908H81.6533C81.6533 13.8908 81.6533 13.8222 81.6533 13.7536C81.6533 13.7536 81.7905 13.685 81.8248 13.7193C81.8248 13.7193 81.8248 13.8222 81.8248 13.8908ZM81.6533 12.2445C81.6533 12.2445 81.6876 12.4503 81.6876 12.5532C81.5504 12.5532 81.4132 12.5532 81.3103 12.4503C81.2417 12.3817 81.3103 12.2445 81.276 12.1073C81.4132 12.1073 81.5504 12.1073 81.619 12.2102L81.6533 12.2445ZM79.4925 12.6904C79.4925 12.6904 79.2524 12.8276 79.1839 12.7933C79.081 12.759 79.0467 12.6218 78.9781 12.5189C79.081 12.4846 79.1839 12.3817 79.2524 12.416C79.3553 12.4503 79.3896 12.5875 79.4582 12.6904H79.4925ZM78.6351 10.9069C78.8409 11.0441 78.9781 11.0784 79.1839 11.2842C78.9781 11.3871 79.1496 11.5586 78.9438 11.6614C78.7723 11.7643 78.5322 11.5929 78.4979 11.3528C78.4979 11.1127 78.395 11.0784 78.395 10.8383C78.4636 10.8383 78.5665 10.8726 78.6351 10.9412V10.9069ZM78.1549 10.3924C78.1549 10.3924 78.3264 10.6668 78.395 10.8383C78.2578 10.7011 77.7776 10.7354 78.1549 10.3924ZM76.5086 11.9015L76.6458 12.073C76.6458 12.073 76.4057 12.2102 76.4057 11.8329L76.5086 11.9015ZM75.4454 11.4557C75.4454 11.4557 75.514 11.2156 75.5826 11.147C75.6512 11.0784 75.7198 11.0784 75.8226 11.0441L75.9598 11.2156L75.8569 11.4557L75.5483 11.5586L75.4111 11.6272L75.4797 11.4557H75.4454ZM74.9995 20.8533C74.9995 20.8533 74.9995 20.9562 74.9995 21.0248C74.9309 21.0248 74.828 21.0591 74.828 21.0248C74.7594 20.8533 74.828 20.7847 74.9995 20.819V20.8533ZM74.7251 17.9723C74.7251 17.9723 74.6908 17.8351 74.7251 17.8008C74.7251 17.7665 74.8623 17.7322 74.8966 17.8008C74.9309 17.8008 74.8966 17.938 74.9309 17.9723H74.7251ZM74.6565 13.4106C74.6565 13.4106 74.7251 13.4106 74.7594 13.4106C74.9309 13.5821 74.9995 13.8908 74.8966 13.9937C74.8623 13.9937 74.7937 13.9937 74.7937 13.9937C74.6222 13.8222 74.5536 13.4792 74.6565 13.4106ZM74.1078 16.1202C74.1078 16.1202 74.1077 16.1888 74.1421 16.1888C74.0735 16.1545 74.0392 16.1202 74.0049 16.0516C74.0392 16.0516 74.1078 16.0516 74.1078 16.0859V16.1202ZM62.9609 17.7665C63.201 17.6636 63.4068 17.8694 63.4411 18.2124L63.3039 18.5553L62.8237 17.9037C62.8237 17.9037 62.9266 17.8008 62.9609 17.7665ZM56.3414 15.2284C56.3414 15.2284 56.4786 15.3999 56.5815 15.4685C56.4786 15.5371 56.3414 15.6057 56.2385 15.6057C56.1356 15.6057 56.067 15.4685 55.9641 15.3656C56.1356 15.297 56.2385 15.2284 56.3757 15.2284H56.3414ZM52.9116 18.281C52.9116 18.281 53.0488 18.4181 53.0145 18.4181C52.9116 18.6239 52.843 18.6239 52.7744 18.4181C52.7744 18.4181 52.843 18.3495 52.9116 18.281ZM50.1678 15.297C50.1678 15.297 50.3393 15.5028 50.3393 15.6057C50.3393 15.9487 50.0992 16.1545 49.7905 16.0859L49.619 15.9487L50.1335 15.297H50.1678ZM48.8644 18.281L48.9673 18.4524C48.9673 18.4524 48.8645 18.5553 48.8302 18.5553C48.7959 18.5553 48.7273 18.4524 48.7273 18.4181C48.7273 18.3495 48.7959 18.3153 48.8644 18.281ZM41.3532 15.1941C41.3532 15.1941 41.559 15.297 41.6962 15.3313C41.6276 15.3999 41.5247 15.5371 41.4561 15.5371C41.3532 15.5371 41.216 15.4342 41.1131 15.3999C41.1817 15.3313 41.2503 15.1598 41.3532 15.1598V15.1941ZM33.0874 17.7665C33.0874 17.7665 33.3618 17.6979 33.499 17.7322C33.5676 17.7322 33.499 18.0409 33.5676 18.1095C33.4647 18.1781 33.4304 18.1095 33.2932 18.1438C33.156 18.1781 33.0188 18.1438 32.8473 18.1438C32.9159 18.0066 32.9502 17.8351 33.0531 17.7665H33.0874ZM29.6919 17.7322C29.6919 17.7322 29.8977 17.8008 30.0349 17.8694C29.9663 17.9723 29.8977 18.1095 29.8291 18.1095C29.7262 18.1095 29.6233 18.0409 29.5204 17.9723C29.589 17.8694 29.6576 17.7322 29.7262 17.7322H29.6919ZM27.977 15.3999C27.977 15.3999 28.0799 15.4685 28.1142 15.5028L27.977 15.64C27.977 15.64 27.8398 15.5714 27.8398 15.5028C27.8398 15.4685 27.9084 15.3656 27.9427 15.3656L27.977 15.3999ZM23.3811 14.6454C23.3811 14.6454 23.6211 14.5425 23.7583 14.4739C23.724 14.6111 23.724 14.7483 23.6211 14.8512C23.5525 14.9541 23.3811 14.9541 23.2439 15.0226C23.2782 14.8855 23.2782 14.7483 23.3811 14.6454ZM23.0038 20.1673C23.0038 20.1673 23.1067 20.2016 23.1753 20.2359V20.4074C23.1753 20.4074 23.0038 20.3731 22.9695 20.3388C22.9695 20.3045 22.9695 20.2016 23.0038 20.1673ZM21.5633 18.0752C21.5633 18.0752 21.7691 18.0752 21.9062 18.1438C21.9748 18.2124 22.0091 18.2467 22.0777 18.3153C22.0777 18.3838 22.1806 18.4181 22.1463 18.4524C22.0777 18.6239 22.0091 18.7611 21.9062 18.864C21.7005 19.0012 21.4947 18.9326 21.3575 18.6582C21.2546 18.4181 21.2889 18.1781 21.529 18.1095L21.5633 18.0752ZM21.3232 21.2992L21.4947 21.3678C21.4947 21.3678 21.4947 21.505 21.4947 21.5393C21.4604 21.5393 21.3918 21.5393 21.3232 21.505V21.3335V21.2992ZM20.7058 13.9937C20.8773 13.8222 21.186 13.7536 21.2889 13.8565C21.2889 13.8908 21.2889 13.9594 21.2889 13.9594C21.1174 14.1309 20.7744 14.1995 20.7058 14.0966C20.7058 14.0966 20.7058 14.028 20.7058 13.9937ZM17.276 11.73L17.5161 12.0387L17.4132 12.3817C17.4132 12.3817 17.2074 12.1759 17.1731 12.073C17.1731 11.9701 17.2417 11.8329 17.276 11.73ZM16.1099 14.1309C16.1099 14.1309 16.3157 14.1309 16.4186 14.1995C16.35 14.3024 16.35 14.4396 16.2814 14.5082C16.2128 14.5425 16.0756 14.4739 15.9727 14.4396C16.007 14.3367 16.0413 14.1995 16.1442 14.1309H16.1099ZM15.4925 13.5478V13.7193C15.4925 13.7193 15.3896 13.7193 15.321 13.685C15.321 13.685 15.2867 13.5478 15.321 13.5135C15.321 13.5135 15.4239 13.5135 15.4925 13.5135V13.5478ZM11.9941 15.3999V15.6057C11.9941 15.6057 11.8912 15.6057 11.8569 15.6057C11.8226 15.6057 11.7883 15.4685 11.8569 15.4342C11.8569 15.4342 11.9598 15.4342 12.0284 15.4342L11.9941 15.3999ZM11.4797 16.7032V16.8747C11.4797 16.8747 11.4111 16.8747 11.3425 16.8747C11.3425 16.8747 11.2739 16.7375 11.3082 16.7032C11.3082 16.7032 11.4111 16.7032 11.4797 16.7032ZM11.514 23.7686C11.3425 23.9401 10.9995 24.0087 10.9309 23.9058C10.9309 23.9058 10.9309 23.8372 10.9309 23.8029C11.1024 23.6314 11.4111 23.5628 11.514 23.6657C11.514 23.7 11.514 23.7686 11.514 23.7686ZM12.9888 55.5971C12.9888 55.5971 12.7487 55.4599 12.7487 55.357C12.7487 55.2542 12.8516 55.117 12.8859 55.0141C12.9545 55.0827 13.0917 55.1856 13.126 55.2542C13.126 55.3571 13.0231 55.4942 12.9888 55.5971ZM12.9202 33.5778C12.9202 33.5778 12.7487 33.3378 12.7487 33.2349C12.7487 33.132 12.8859 33.0291 12.9545 32.9262L13.1603 33.2692L12.9545 33.5778H12.9202ZM13.1603 29.7708C13.1603 29.7708 13.0917 29.6679 13.0574 29.5993L13.2289 29.4964C13.2289 29.4964 13.3318 29.5993 13.3318 29.6679C13.3318 29.7022 13.2289 29.7708 13.1946 29.7708H13.1603ZM12.9202 22.1566C12.8173 21.9851 12.8516 21.6079 12.7144 21.5736C12.2685 21.4707 11.9941 20.8533 11.8569 20.7504C11.8569 20.7504 11.4797 20.819 11.4111 20.7504C11.3425 20.7504 11.514 20.6132 11.514 20.6132C11.6169 20.4417 11.9941 20.476 11.9598 20.476C11.9598 20.3731 12.1999 19.6872 12.6801 19.55C12.8516 19.4814 12.9545 19.3099 13.0231 19.1384C13.1603 18.7611 13.2289 18.2467 13.5032 17.938C13.7776 17.6293 14.3607 17.595 14.6694 17.3206C15.4582 16.5661 15.6983 15.7086 15.8355 15.6743C16.4529 15.64 16.7959 15.4685 17.0702 15.1598C17.2417 14.9541 17.3789 14.6797 17.5847 14.5082C17.7905 14.3024 18.0649 14.1652 18.0992 14.4739C18.1678 14.6797 18.0649 14.4053 18.0992 14.0966C18.0992 14.028 18.1335 13.9937 18.1678 13.9594C18.2021 14.4739 18.1678 14.4739 18.1678 14.4739C18.2707 14.5425 18.5793 14.8169 18.7508 14.9883C19.3682 15.64 19.8484 16.4975 20.843 16.7032C20.9116 16.8061 20.9459 16.909 20.9802 16.9776C20.843 16.9776 20.7058 17.0119 20.5686 17.0119C20.3628 17.0119 20.0885 17.252 20.0199 17.4235C19.8141 17.8351 19.6083 18.1095 19.0938 18.1438C18.7851 18.1781 18.4079 18.3495 18.2021 18.5553C17.6533 19.0698 16.8644 19.4471 16.7959 20.3045C16.0756 20.5789 15.5954 21.1963 15.1838 21.8136C14.9781 22.1223 14.8409 22.3967 15.1495 22.7397C15.4925 23.1513 14.8752 23.3228 14.6351 23.6314C14.4979 23.5628 14.395 23.4599 14.2235 23.4256C13.8119 23.3571 13.709 22.774 13.3318 22.5682C13.1603 22.4653 13.0231 22.3281 12.9202 22.1566ZM20.9802 19.8587V20.0302C20.7744 20.0302 20.7401 19.9616 20.843 19.8244C20.843 19.8244 20.9459 19.8244 21.0145 19.8587H20.9802ZM20.4657 18.3495C20.4657 18.3495 20.3628 18.6582 20.2942 18.7268C20.1913 18.7954 20.0199 18.7268 19.8827 18.7611C19.9513 18.6239 19.9856 18.4867 20.0885 18.3838C20.1914 18.3153 20.3285 18.3838 20.4657 18.3495ZM16.933 27.8844C16.933 27.8844 16.7959 27.953 16.7616 27.9187C16.7273 27.9187 16.6587 27.8158 16.693 27.7815C16.693 27.7472 16.7959 27.7472 16.8644 27.7129L16.933 27.8844ZM15.9727 34.9155C15.9727 34.9155 15.8012 34.8126 15.8012 34.7783C15.8012 34.6411 15.8012 34.4696 15.8355 34.3667C15.9041 34.2638 16.0756 34.2295 16.2128 34.1609C16.2128 34.2981 16.2128 34.4696 16.2128 34.6068C16.1785 34.744 16.0756 34.8469 15.9727 34.9498V34.9155ZM16.1099 46.0966C16.1099 46.0966 16.007 46.1995 15.9727 46.1995C15.9384 46.1995 15.8698 46.1309 15.8355 46.0623L16.007 45.9594C16.007 45.9594 16.1099 46.0623 16.1099 46.0966ZM15.8698 22.2595C15.8698 22.2595 15.9727 22.2595 16.0413 22.2595C16.0756 22.2595 16.1442 22.2938 16.1442 22.3624C16.1442 22.431 16.1442 22.4996 16.1442 22.5339C16.1099 22.6025 16.007 22.6025 15.9041 22.5339C15.8012 22.4653 15.7669 22.3624 15.8698 22.3281V22.2595ZM14.9781 41.9123C15.1838 42.0151 15.1838 42.0837 14.9781 42.1523C14.9781 42.1523 14.9095 42.0837 14.8409 42.0151C14.8752 41.9808 14.9781 41.878 14.9781 41.9123ZM14.8409 37.5221L14.9781 37.4192C15.1838 37.5221 15.1495 37.5907 14.9781 37.6593C14.9781 37.6593 14.9095 37.5907 14.8752 37.5221H14.8409ZM14.9781 47.297C14.9781 47.297 15.1153 47.3999 15.1153 47.4342C15.0124 47.6057 14.9095 47.6057 14.8409 47.4342C14.8409 47.4342 14.9438 47.3656 14.9781 47.3313V47.297ZM14.8409 45.6164C14.8409 45.6164 14.9438 45.5478 14.9781 45.5135C15.0124 45.5478 15.1153 45.6164 15.1153 45.6507C15.0124 45.8222 14.9095 45.8222 14.8409 45.6507V45.6164ZM14.9781 59.4728C14.9781 59.4728 15.1153 59.5757 15.081 59.61C15.081 59.6443 14.9781 59.7129 14.9438 59.7129C14.8752 59.7129 14.8409 59.6443 14.8066 59.5757L14.9781 59.4728ZM14.8409 50.5896L15.2181 50.4181L15.5611 50.6239C15.5611 50.6239 15.321 50.7954 15.1838 50.7954C15.0467 50.7954 14.9438 50.6925 14.8409 50.6239V50.5896ZM14.6008 41.1577C14.6008 41.1577 14.4979 41.2606 14.4636 41.2606C14.395 41.2606 14.3607 41.192 14.3264 41.1234L14.4979 41.0205C14.4979 41.0205 14.6351 41.1234 14.6008 41.1577ZM13.9491 46.6797C13.9491 46.6797 13.8119 46.5768 13.8119 46.5425C13.8119 46.5082 13.9148 46.4739 13.9491 46.4053L14.0863 46.5425C14.0863 46.5425 13.9834 46.6454 13.9491 46.6454V46.6797ZM14.0863 49.252C14.0863 49.252 13.9834 49.3549 13.9491 49.3549C13.8805 49.3549 13.8462 49.2863 13.8119 49.2177L13.9834 49.1148C13.9834 49.1148 14.1206 49.2177 14.0863 49.252ZM13.5032 24.7976C13.5032 24.7976 13.5375 24.5232 13.6404 24.4203C13.7433 24.3174 13.8805 24.3174 14.0177 24.2488C13.9834 24.386 13.9834 24.5232 13.8805 24.6261C13.8119 24.729 13.6404 24.729 13.5032 24.7976ZM13.6747 71.0998C13.6747 71.0998 13.5718 71.0312 13.5032 70.9969L13.6404 70.8597C13.6404 70.8597 13.7776 70.9283 13.7776 70.9969C13.7776 71.0312 13.709 71.1341 13.6404 71.1341L13.6747 71.0998ZM13.9148 64.1716C13.9148 64.1716 13.7776 63.9315 13.7776 63.8286C13.7776 63.7601 13.9491 63.6915 14.0177 63.5886C14.052 63.7258 14.1549 63.8286 14.1549 63.9658C14.1549 64.0344 13.9834 64.103 13.9148 64.1716ZM13.8462 55.5628L14.0177 55.4599C14.0177 55.4599 14.1206 55.5628 14.1206 55.5971C14.1206 55.6314 14.0177 55.7 13.9834 55.7C13.9148 55.7 13.8805 55.6314 13.8462 55.5628ZM13.9148 52.9219L14.1549 52.7161L14.5322 52.8533C14.5322 52.8533 14.3607 53.0591 14.2578 53.0591C14.1206 53.0591 14.0177 52.9905 13.8805 52.9219H13.9148ZM14.4636 61.0848C14.4636 61.0848 14.3607 61.0162 14.3264 60.9476L14.4979 60.8447C14.4979 60.8447 14.6008 60.9476 14.6008 60.9819C14.6008 61.0162 14.4979 61.0848 14.4636 61.0848ZM15.0467 76.7247C15.0467 76.7247 14.7723 76.5875 14.738 76.4846C14.7037 76.3817 14.738 76.2102 14.738 76.073C14.8409 76.1416 15.0124 76.2102 15.0467 76.3131C15.081 76.416 15.0467 76.5875 15.0467 76.7247ZM14.7723 65.0977C14.5665 65.0634 14.4979 64.7547 14.6694 64.6175C14.8409 64.4803 14.9438 64.6518 15.1153 64.5146C15.1838 64.7204 15.1495 64.8233 15.2181 65.0291C15.2181 65.0977 15.2181 65.1663 15.2181 65.2349C14.9781 65.2349 14.9781 65.132 14.738 65.0634L14.7723 65.0977ZM15.2524 65.2692L15.6297 65.475C15.2524 65.7493 15.321 65.4064 15.2524 65.2692ZM15.5611 62.3881C15.5611 62.3881 15.321 62.2509 15.321 62.148C15.321 62.0452 15.4239 61.908 15.4582 61.8051C15.5268 61.8737 15.664 61.9766 15.6983 62.0452C15.6983 62.148 15.5954 62.2852 15.5611 62.3881ZM16.1099 72.3688C16.1099 72.3688 15.8698 72.3002 15.8355 72.2316C15.8012 72.1288 15.8698 71.9916 15.9041 71.8887C16.007 71.9573 16.1442 71.9916 16.1785 72.0602C16.1785 72.1631 16.1785 72.3003 16.1099 72.4031V72.3688ZM16.4186 74.9755C16.4186 74.9755 16.1785 74.804 16.1442 74.7011C16.1442 74.6325 16.2128 74.4953 16.2814 74.4267C16.3843 74.4953 16.5215 74.5639 16.5558 74.6668C16.5558 74.7354 16.4872 74.8726 16.4186 74.9755ZM17.5504 78.0623C17.5504 78.0623 17.5504 77.8222 17.5504 77.685C17.6533 77.7193 17.8248 77.7536 17.8934 77.8565C17.962 77.9594 17.8934 78.0966 17.8934 78.2338C17.7905 78.1995 17.619 78.1652 17.5504 78.0623ZM18.7165 79.9487C18.7165 79.9487 18.6136 79.9487 18.545 79.9487C18.545 79.8801 18.545 79.7772 18.545 79.7772C18.7508 79.7086 18.7851 79.7772 18.6822 79.983L18.7165 79.9487ZM20.843 81.938C20.5686 81.7665 20.6029 81.4235 20.843 81.1834L21.0488 81.1148L21.186 81.938C21.186 81.938 20.9116 82.0066 20.843 81.938ZM21.5633 82.9326V82.7268C21.5633 82.7268 21.7005 82.6925 21.7348 82.7268C21.7691 82.7268 21.8034 82.864 21.7348 82.8983C21.7348 82.9326 21.6319 82.8983 21.5633 82.9326ZM22.2492 80.9776V80.8061C22.2492 80.8061 22.3864 80.7375 22.4207 80.8061C22.4207 80.8061 22.455 80.9433 22.4207 80.9776C22.3864 81.0119 22.3178 81.0119 22.2492 81.0462V80.9776ZM25.1989 81.8694C25.1989 81.8694 25.1303 81.6636 25.096 81.595C25.1989 81.595 25.336 81.5264 25.4389 81.595C25.5075 81.595 25.5075 81.8008 25.5418 81.9037C25.4389 81.9037 25.3017 81.938 25.1989 81.9037V81.8694ZM26.6737 83.893C26.6737 83.893 26.6051 83.7901 26.6051 83.7215L26.7766 83.6529C26.7766 83.6529 26.8452 83.7901 26.8452 83.8244C26.8452 83.8587 26.7423 83.9273 26.708 83.9273L26.6737 83.893ZM28.6629 84.819C28.6629 84.819 28.4229 84.6818 28.32 84.6132C28.4229 84.5446 28.4915 84.4074 28.5944 84.4074C28.6972 84.4074 28.8001 84.5103 28.903 84.5789L28.6629 84.819ZM29.246 83.6529C29.5547 83.3785 29.4861 83.7558 29.5547 83.893L29.246 83.6529ZM30.1721 84.3731C30.1721 84.3731 29.8634 84.3731 29.7605 84.3045C29.6576 84.2359 29.6233 84.0644 29.5547 83.9273C29.6919 83.9273 29.8291 83.9273 29.9663 83.9958C30.1035 84.0302 30.2064 84.1673 30.3092 84.2359C30.275 84.3045 30.2064 84.4074 30.1721 84.4074V84.3731ZM31.5097 83.3785C31.201 83.4814 30.9952 83.2413 30.9609 82.8983L31.1324 82.5553L31.6812 83.2756C31.6812 83.2756 31.5783 83.3785 31.5097 83.4128V83.3785ZM34.6994 84.8533L34.5965 84.6818C34.5965 84.6818 34.6994 84.5789 34.7337 84.5789C34.768 84.5789 34.8366 84.6818 34.8366 84.7161C34.8366 84.7847 34.768 84.819 34.6994 84.8533ZM36.037 85.3678L35.9341 85.2306C36.037 85.0248 36.1056 85.0591 36.1742 85.2306C36.1742 85.2306 36.1056 85.2992 36.037 85.3678ZM36.037 83.3442C36.037 83.3442 35.9684 83.2413 35.9341 83.207C35.9684 83.1727 36.037 83.0698 36.0713 83.0698C36.2428 83.1727 36.2428 83.2756 36.0713 83.3442H36.037ZM37.8548 83.3442C37.8548 83.3442 37.7862 83.2413 37.7176 83.207L37.8548 83.0698C37.8548 83.0698 37.9577 83.1727 37.9577 83.207C37.9577 83.2413 37.8548 83.3442 37.8205 83.3442H37.8548ZM38.7466 84.3388C38.7466 84.3388 38.678 84.2359 38.6437 84.2016L38.7808 84.0644C38.7808 84.0644 38.8837 84.1673 38.8837 84.2016C38.8837 84.2359 38.8151 84.3388 38.7808 84.3045L38.7466 84.3388ZM40.9759 83.3442L40.873 83.1727C40.873 83.1727 40.9759 83.0698 41.0102 83.0698C41.0445 83.0698 41.0788 83.1727 41.1131 83.207L40.9759 83.3442ZM44.5772 85.8479C44.5772 85.8479 44.5086 85.745 44.4743 85.7107C44.5086 85.6765 44.5772 85.5736 44.6115 85.5736C44.783 85.6765 44.783 85.7793 44.6115 85.8479H44.5772ZM51.5054 83.893C51.5054 83.893 51.3682 83.7215 51.2996 83.6529C51.4025 83.6186 51.5397 83.5157 51.6426 83.5157C51.7112 83.5157 51.7798 83.6872 51.8827 83.7558C51.7455 83.7901 51.6426 83.893 51.5054 83.893ZM55.0724 84.7847L54.9352 84.6132C54.9352 84.6132 55.0381 84.476 55.0724 84.476C55.1067 84.476 55.2096 84.5789 55.1753 84.6132C55.1753 84.6818 55.0724 84.7161 55.0381 84.7504L55.0724 84.7847ZM56.4443 83.7215C56.4443 83.7215 56.2728 83.4814 56.2728 83.3442C56.2728 83.207 56.3757 83.1041 56.4443 83.0012C56.5129 83.1384 56.6158 83.2413 56.6158 83.3785C56.6158 83.4814 56.5129 83.6186 56.4443 83.7215ZM59.0509 84.9219C59.0509 84.9219 58.6737 84.6475 58.708 84.4074C58.708 84.4074 58.7423 84.3388 58.7766 84.3045C58.9481 84.3045 59.1195 84.5446 59.1195 84.819C59.1195 84.819 59.0852 84.9219 59.0509 84.9219ZM61.1431 85.8136C61.1431 85.8136 60.9373 85.6764 60.8344 85.6078L61.1774 85.4021L61.4861 85.6078C61.4861 85.6078 61.246 85.7793 61.1431 85.7793V85.8136ZM61.589 84.3731L61.3832 84.7504C61.1088 84.3731 61.4518 84.4417 61.589 84.3731L61.7948 83.9958C62.0692 84.3731 61.7262 84.3045 61.589 84.4074V84.3731ZM63.887 82.4524C63.887 82.4524 63.8184 82.3495 63.7841 82.3152C63.8184 82.281 63.887 82.1781 63.9213 82.2124C64.0927 82.3152 64.0927 82.4181 63.9213 82.4524H63.887ZM65.9105 86.8083C65.9105 86.8083 65.6019 86.5682 65.6362 86.3967C65.6362 86.3967 65.6705 86.3624 65.7048 86.3281C65.8419 86.3281 66.0134 86.5339 65.9791 86.7397C65.9791 86.7397 65.9791 86.8083 65.9105 86.8083ZM68.7916 85.1277L68.4143 85.2306C68.4143 85.2306 68.4486 84.9219 68.5515 84.8533C68.6201 84.7847 68.7916 84.7847 68.9288 84.7504L68.8259 85.162L68.7916 85.1277ZM70.0949 82.2124C70.0949 82.2124 69.992 82.1438 69.9577 82.1095C69.9577 82.0752 70.0263 81.9723 70.0263 81.9723C70.1978 82.0409 70.2321 82.1438 70.0949 82.2124ZM72.0156 83.0012C72.0156 83.0012 71.8784 83.0012 71.7412 83.0012L71.9127 82.5553C71.9127 82.5553 72.0842 82.6239 72.0842 82.6582C72.0842 82.7611 72.0842 82.8983 72.0156 82.9669V83.0012ZM72.5986 81.7665C72.5986 81.7665 72.4958 81.7322 72.4272 81.6979L72.4957 81.5264C72.4957 81.5264 72.6329 81.5607 72.6329 81.6293C72.6329 81.6636 72.6329 81.7665 72.5986 81.8008V81.7665ZM75.1024 79.64C75.1024 79.64 74.8966 79.8115 74.7937 79.8115C74.6908 79.8115 74.5193 79.7086 74.4164 79.64C74.5193 79.5714 74.6222 79.4685 74.7251 79.4342C74.828 79.3999 74.9995 79.4342 75.1024 79.4342C75.1024 79.5028 75.1367 79.6057 75.1024 79.64ZM75.8569 82.8297C75.8569 82.8297 75.6855 82.8297 75.6855 82.7954C75.6855 82.5896 75.7197 82.521 75.8912 82.6582C75.8912 82.6582 75.8913 82.7611 75.8569 82.8297ZM79.5268 71.1684C79.6983 71.4771 79.5611 71.6829 79.321 71.8544C78.9781 72.0602 78.8409 72.3688 78.9095 72.6775C78.9781 73.0205 78.9095 73.2263 78.7037 73.5007C78.3264 74.0151 78.052 74.5639 77.8805 75.1813C77.7776 75.49 77.6061 75.6614 77.4689 75.9015C76.5772 77.1363 75.5826 78.3024 74.3821 79.2627C74.3135 79.297 74.4164 79.5371 74.4507 79.6743C74.2449 79.6743 74.0049 79.64 73.8677 79.7086C73.1817 80.0859 72.5301 80.4632 71.8441 80.7375C71.7755 80.7719 71.5697 81.1148 71.5011 81.2177C71.3296 81.4235 71.1238 81.4578 70.7466 81.2863C70.4379 81.1148 70.1978 81.3549 69.9577 81.4235C68.5515 81.938 67.5568 81.4235 66.1849 82.3152C66.0477 82.4181 65.7733 82.2467 65.5676 82.2124C65.2932 82.1438 65.0188 81.938 64.7444 81.938C64.2985 81.7665 64.1613 81.8351 63.6812 81.8694C63.544 81.8694 63.3725 81.9037 63.2696 82.0066C63.1667 82.1095 63.0981 82.281 63.0981 82.4181C63.0981 82.4867 61.4518 82.0409 60.903 82.0066C60.4572 82.0066 59.977 82.2467 59.4968 82.0066C59.3596 81.938 59.1195 82.2124 58.9138 82.281C58.708 82.3152 58.5022 82.3152 58.2964 82.281C57.8848 82.1781 57.336 82.4867 56.9931 82.281C56.1356 81.7322 55.3125 81.7665 54.455 82.1781C54.1806 82.3152 54.0777 82.0409 53.872 82.0066H53.8034C53.3232 81.8008 52.7058 82.3152 52.2942 82.0066C51.4368 81.3892 50.5108 81.6293 49.619 81.6636C49.5161 81.6636 49.3789 81.8694 49.3446 82.0066C49.2074 82.3495 49.0702 82.6925 48.8644 82.1095C48.7273 81.7322 48.4186 82.1095 48.1785 82.2467C47.4582 82.6239 46.8066 81.7665 46.1206 81.7665C45.1603 81.7665 45.1603 81.7665 44.2342 82.3495C44.2342 82.3495 43.6169 82.3838 43.6169 82.281C43.514 81.8694 42.7594 81.9037 42.4507 81.938C42.1763 81.9723 41.8677 82.281 41.6276 82.2124C41.1474 82.0752 40.7015 81.8008 40.2214 82.281C40.1185 82.3838 39.7755 82.281 39.604 82.1781C38.9866 81.7322 38.3007 81.9037 37.649 81.9037C36.9288 81.9037 36.2085 81.8008 35.4539 82.1095C34.425 82.521 33.3961 82.0066 32.1956 82.0409C31.1667 82.0409 30.8237 81.2863 30.275 82.0409C30.2407 82.1095 30.1721 82.1781 30.1378 82.1781C30.0349 82.1781 29.932 82.0752 29.8634 82.0066C29.5204 81.6293 29.1088 81.8008 28.7315 81.8694C28.4229 81.938 28.3886 82.0066 28.0456 81.8008C27.7026 82.0409 27.4625 81.8694 27.2224 81.595C27.0509 81.3892 26.7766 81.3892 26.5365 81.3206C26.0563 81.1834 25.5761 80.9776 25.096 80.8404C24.6844 80.6347 24.3071 80.2574 23.8955 80.326C23.2096 80.4289 23.1753 79.7086 22.7294 79.5371C22.3521 79.3656 21.7691 79.4685 21.7691 78.8169C20.3971 77.685 19.2996 76.2445 18.3736 74.7354C18.1335 74.2895 17.3789 74.0494 17.7562 73.2949C17.8591 73.0891 17.6876 72.7461 17.5161 72.6089C17.0702 72.1973 16.693 71.7172 17.1388 71.0998C17.0016 70.3453 17.1388 69.5907 16.7273 68.8704C16.5215 68.5618 16.693 68.4246 16.8987 68.1845C17.1388 67.9787 17.276 67.8072 17.1388 67.4299C16.9673 66.9498 16.933 66.401 16.933 65.9208C16.8987 65.2349 16.933 64.5832 16.933 63.8972C16.933 63.2113 17.0702 62.491 16.8987 61.8737C16.693 61.222 16.8301 60.6389 16.8987 60.0216C16.933 59.7815 16.5558 59.4728 16.5901 59.1984C16.5901 58.8554 16.8644 58.5125 16.933 58.1695C17.1045 57.3806 17.276 57.3463 16.6244 56.7633C16.3157 56.5232 16.4186 56.1459 16.7616 56.043C17.2074 55.8715 16.9673 55.0484 16.933 54.6025C16.933 54.1909 16.933 53.9851 16.933 53.7107C16.933 53.3678 17.1045 53.1963 16.7273 53.162C16.3157 53.162 16.2128 52.3388 16.7273 52.0644C17.1731 51.8587 16.9673 51.7901 16.9673 51.4128C16.9673 50.5896 17.1731 49.6979 16.8644 48.9433C16.4872 48.0173 17.3103 47.2627 16.9673 46.4053C16.7959 45.9937 16.7273 45.5821 16.6244 45.1706C17.1731 44.6561 16.7273 44.2445 16.5215 43.7643C16.4186 43.5243 16.5215 43.1813 16.6244 42.9069C16.693 42.6325 16.933 42.3581 16.933 42.0837C16.933 39.58 16.933 37.282 16.933 34.6754C16.933 34.5382 16.6244 34.401 16.4872 34.2295C16.6587 33.7493 17.1045 33.3378 17.0016 32.789C16.933 32.446 17.0016 32.1373 17.0359 31.8286C17.1045 31.3485 16.8301 30.6968 17.0359 30.6282C17.5161 30.491 17.3446 29.7708 17.4132 29.565C17.4818 29.1534 17.3446 28.3989 17.5161 27.9873C17.7905 27.1641 18.4422 26.8211 18.6822 26.0323C18.8537 25.5864 18.8537 25.0377 19.4711 24.8662C19.574 24.8319 19.6426 24.6947 19.7112 24.5918C20.0885 24.0087 20.3971 23.3228 20.8773 22.8083C21.3918 22.2938 22.112 22.088 22.6608 21.6765C22.8323 20.7504 23.8955 21.1963 24.3757 20.7161C24.6501 20.476 25.4046 20.5446 25.4046 20.0987C25.4046 19.7558 25.6104 19.6529 25.9534 19.7215C26.4679 19.8587 26.3993 19.7901 26.8452 19.7215C27.7712 19.4814 28.6972 19.6872 29.5547 18.9326C29.8291 18.6925 30.1721 18.7954 30.4807 19.0355C30.7208 19.2413 30.8237 19.0698 30.9609 18.8297C31.1667 18.4181 32.0927 18.7611 32.2299 18.9326C32.47 19.1727 32.8816 19.207 33.1217 18.9326C33.2246 18.7611 33.0531 18.4867 33.1903 18.3153C33.4647 19.1727 34.0134 19.4814 34.768 19.207C35.0424 19.1041 35.2482 18.9326 35.5568 19.1384C36.1056 19.4814 36.7573 19.4814 37.2374 19.0355C37.7862 18.521 38.3693 19.6186 38.8494 18.8983C38.8837 18.8297 39.1581 18.864 39.261 18.9326C39.7069 19.3442 40.2214 19.3099 40.7701 19.3099C42.5193 19.3099 44.2342 19.3099 45.9491 19.3099C46.395 19.3099 46.8409 19.3442 47.2524 19.0355C47.3896 18.9326 47.7326 18.864 47.8698 18.9669C48.4872 19.4814 49.1731 19.3785 49.8248 19.3099C50.6136 19.207 51.3339 19.2413 52.1228 19.3099C53.9062 19.4471 55.724 19.3442 57.5075 19.3442C57.9877 19.3442 58.2621 19.4814 58.6394 19.1384C59.0166 18.7611 59.291 18.7611 59.4968 19.2756C59.6683 19.6872 60.1828 19.3442 60.8687 19.2756C61.0745 19.2756 61.1088 19.4128 61.3146 19.4128C61.932 19.4128 62.515 19.4128 63.0981 19.4128C63.6126 19.4128 64.127 19.3442 64.6415 19.207C65.2589 19.0355 65.739 19.6186 66.3221 19.4471C66.6308 19.3442 66.9738 19.4471 67.2825 19.4814C67.694 19.4814 68.9288 19.5843 69.1345 19.7215C69.5804 20.0644 70.0949 19.8244 70.6094 19.8244C71.261 20.6818 72.29 20.7161 73.0445 21.2649C73.6619 21.6765 74.4164 21.9851 74.5879 22.8426C74.5879 22.9112 74.9309 22.8769 75.1367 22.8426C75.3082 22.8083 75.5483 22.4996 75.6169 22.8426C75.6512 23.117 75.7541 23.3571 76.0627 23.3914C76.5772 23.4599 76.9888 23.6657 76.9545 24.2831C76.8859 24.8662 77.2289 25.1748 77.5719 25.4492C77.8119 25.655 78.052 25.7579 78.052 26.1352C78.052 26.5125 78.2235 26.8897 78.4636 27.1984C78.6351 27.4385 79.081 27.5757 79.1839 27.8501C79.2867 28.1931 79.1839 28.6046 79.1839 28.9819C79.1839 29.2906 79.1838 29.6679 79.664 29.7708C80.0756 29.8394 80.5558 29.8394 80.0413 30.3195C79.321 31.0398 79.664 31.6572 79.8355 32.3431C79.8355 32.4117 80.1099 32.4803 80.2128 32.5489C80.3843 32.6518 79.321 33.0977 79.664 34.2638C79.7326 34.5382 79.7326 34.8469 79.6983 35.1556C79.5611 36.8704 80.0756 38.5853 79.3896 40.2659C79.2867 40.506 79.8698 41.5693 80.1785 41.9465C79.6297 42.7354 79.4582 43.6271 79.8698 44.4846C80.1099 44.9648 79.664 45.4449 80.007 45.8565C79.5954 46.3024 79.6983 46.8512 79.6983 47.3656C79.6983 48.0859 79.6983 48.7032 79.6983 49.3892V53.4364C79.6983 54.1223 79.664 54.6025 79.9041 55.1856C80.2128 55.8715 80.2814 56.4203 79.9041 57.0376C79.8698 57.1062 79.9727 57.312 80.0756 57.4492C80.2471 57.7236 80.3843 57.9637 80.1785 58.2724C79.5954 59.0612 79.321 59.6786 79.8012 60.3989C79.9727 60.6389 80.1785 60.9133 80.2471 61.1877C80.2814 61.3592 80.1442 61.5993 80.007 61.7365C79.9384 61.8394 79.664 61.8394 79.5954 61.9423C79.1838 62.3881 79.7669 63.3485 79.7326 63.8286C79.7326 64.3088 79.7326 64.1373 80.1099 64.3431C80.2128 64.4117 80.1785 64.5832 80.1099 64.6861C80.007 64.8576 79.9727 64.789 79.7669 64.8576C79.664 64.8919 79.7669 66.2295 79.7326 66.2638C79.6983 66.9498 79.7326 66.5725 79.7326 67.2241C79.7326 67.8758 79.4925 68.4932 79.9727 68.9733C79.4239 69.4535 79.664 70.1395 79.5611 70.7225C79.5611 70.894 79.6297 71.0998 79.7669 71.2713L79.5268 71.1684ZM76.8859 20.6475C76.8859 20.6475 76.9888 20.6475 77.0574 20.6475C77.0574 20.7161 77.0574 20.819 77.0574 20.819C76.8516 20.8876 76.8173 20.819 76.8859 20.6475ZM77.5033 24.1116C77.709 23.9401 77.8805 23.9401 77.9834 24.1116C78.0177 24.1802 78.1206 24.3174 78.1892 24.4546C78.2235 24.5575 78.1206 24.6604 77.9834 24.6604C77.7433 24.6604 77.5033 24.6261 77.4347 24.5575C77.2632 24.4546 77.3318 24.2831 77.5033 24.1116ZM80.2128 70.2424C80.2128 70.2424 80.1099 70.311 80.0756 70.311C80.0413 70.2767 79.9727 70.2081 79.9727 70.1738C80.0756 70.0366 80.1785 70.0366 80.2128 70.2081V70.2424ZM79.7669 74.9412C79.7669 74.9412 79.6983 74.6668 79.7669 74.5639C79.8012 74.461 79.9727 74.4267 80.0756 74.3581C80.0756 74.4953 80.1442 74.6325 80.0756 74.7354C80.0413 74.8383 79.8698 74.8726 79.7669 74.9412ZM80.0756 72.8147C80.0756 72.8147 79.9384 72.6089 80.1442 72.6089C80.1442 72.6089 80.2128 72.7118 80.2128 72.7461C80.1442 72.7461 80.0756 72.8147 80.0413 72.8147H80.0756ZM79.9727 41.8094L80.2128 41.4664C80.5215 41.7751 80.1099 41.7408 79.9727 41.8094ZM80.693 44.8619L80.5558 44.7247C80.5558 44.7247 80.6587 44.6218 80.693 44.6218C80.7273 44.6218 80.8302 44.7247 80.8302 44.759C80.8302 44.7933 80.7273 44.8276 80.693 44.8962V44.8619ZM80.9673 52.1673L80.5901 51.9616C80.9673 51.6872 80.8988 52.0301 80.9673 52.1673ZM80.9673 55.3228L81.3446 55.5285C80.9673 55.8029 81.0359 55.4599 80.9673 55.3228L80.5901 55.117C80.9673 54.8426 80.8988 55.1856 80.9673 55.3228ZM80.8302 71.6486C80.8302 71.6486 80.7273 71.4085 80.7616 71.2713C80.7616 71.2027 80.933 71.1684 81.0359 71.0998C81.0359 71.2027 81.1388 71.3399 81.1045 71.4428C81.1045 71.5114 80.933 71.5457 80.8302 71.6143V71.6486ZM81.0359 57.5178C81.0359 57.5178 81.2074 57.3806 81.276 57.312C81.3103 57.4149 81.4132 57.5521 81.4132 57.655C81.4132 57.7236 81.2417 57.7922 81.1731 57.8951C81.1388 57.7579 81.0359 57.655 81.0359 57.5178ZM81.3446 73.7065C81.3446 73.7065 81.276 73.5693 81.276 73.535C81.276 73.5007 81.4132 73.4664 81.4475 73.4664C81.4818 73.4664 81.5161 73.5693 81.5161 73.6379L81.3446 73.7065ZM81.2074 52.5446C81.2074 52.5446 81.0359 52.3045 80.9673 52.2016C81.1388 52.2016 81.3103 52.2016 81.4475 52.2016C81.5847 52.2359 81.6876 52.3388 81.8248 52.4074C81.7562 52.476 81.7219 52.5446 81.6533 52.5446C81.5161 52.5446 81.3103 52.5446 81.2074 52.5103V52.5446ZM81.0702 42.0837C81.1731 41.9123 81.276 41.9123 81.3446 42.0837C81.3446 42.0837 81.2417 42.1523 81.2074 42.1866C81.1731 42.1523 81.0702 42.0837 81.0702 42.0494V42.0837ZM82.2021 53.2306C82.2021 53.2306 82.305 53.2992 82.3393 53.3678L82.1678 53.4707C82.1678 53.4707 82.0306 53.3678 82.0649 53.3335C82.0649 53.2992 82.1678 53.2306 82.2021 53.2306ZM81.962 36.4589L82.2021 36.1159C82.5107 36.4246 82.1335 36.3903 81.962 36.4589ZM81.8934 34.1266C81.619 34.0923 81.4132 33.9551 81.5161 33.715C81.5847 33.5435 81.7562 33.4407 81.9963 33.2006C82.2707 33.3378 82.3393 33.6464 82.3393 33.7836C82.3393 34.0237 82.1678 34.1609 81.8934 34.1266ZM81.5504 36.6647C81.5504 36.6647 81.7905 36.5275 81.9277 36.4589C81.9277 36.5961 81.9277 36.7676 81.9277 36.8704C81.8934 37.0076 81.7905 37.1105 81.6876 37.2134C81.619 37.1791 81.5161 37.1105 81.5161 37.0762C81.5161 36.939 81.5161 36.7676 81.5504 36.6647ZM81.8248 70.7225C81.8248 70.7225 81.962 70.5168 82.0306 70.4139L82.2364 70.6882L82.0306 71.0312C82.0306 71.0312 81.8248 70.8597 81.8248 70.7568V70.7225ZM82.1678 66.9498C81.962 66.8469 81.9963 66.7783 82.1678 66.7097C82.1678 66.7097 82.2364 66.7783 82.2707 66.8469C82.2364 66.8812 82.1678 66.9498 82.1335 66.9498H82.1678ZM82.305 68.2188C82.305 68.2188 82.2021 68.2874 82.1678 68.3217C82.1335 68.2874 82.0306 68.2188 82.0306 68.1845C82.1335 68.013 82.2364 68.013 82.305 68.1845V68.2188ZM82.2021 75.6271V75.4214C82.2021 75.4214 82.305 75.3528 82.3393 75.3871C82.3736 75.3871 82.4422 75.5243 82.4079 75.5586C82.4079 75.5928 82.2707 75.5928 82.2021 75.6271ZM81.8591 64.6175C81.8591 64.6175 81.7219 64.4803 81.7219 64.4117C81.7219 64.3431 81.7562 64.2059 81.8248 64.1716C82.0306 64.1373 82.2021 64.103 82.4079 64.103C82.4079 64.103 82.5107 64.2402 82.4765 64.3088C82.2707 64.5832 82.0992 64.6518 81.8591 64.6175ZM82.5107 59.9187C82.5107 59.9187 82.7165 59.5757 82.888 59.4728C82.9566 59.4385 83.1624 59.5414 83.2653 59.5757C83.2653 59.5757 83.2653 59.7129 83.2653 59.7472C83.1281 59.9187 82.9909 60.0902 82.8537 60.2617C82.6822 60.0559 82.5107 59.953 82.545 59.8844L82.5107 59.9187ZM83.1967 62.0109C83.1967 62.0109 83.0595 61.908 83.0595 61.8737C83.1624 61.7022 83.2653 61.7022 83.3339 61.8737C83.3339 61.8737 83.231 61.9423 83.1967 61.9766V62.0109ZM83.1967 41.2949C82.9909 41.192 83.0252 41.1234 83.1967 41.0548C83.1967 41.0548 83.2653 41.1234 83.3339 41.192C83.2996 41.2263 83.1967 41.2949 83.1967 41.2949ZM83.9513 50.4181L83.574 50.2124C83.9513 49.938 83.8827 50.281 83.9513 50.4181ZM83.9513 34.2295C83.9513 34.2295 83.9513 34.5039 83.9513 34.6754C83.8141 34.6068 83.6426 34.5725 83.574 34.4696C83.5054 34.3667 83.5054 34.1952 83.5397 34.058C83.5397 33.9894 83.6426 33.9551 83.7112 33.9208C83.7798 34.0237 83.917 34.1266 83.9513 34.2638V34.2295ZM83.7798 26.2724C83.7798 26.2724 83.6769 26.0323 83.6083 25.8951C83.7455 25.9294 83.8827 25.9294 83.9856 26.0323C84.0885 26.1352 84.0885 26.2724 84.1571 26.4096C84.0199 26.3753 83.8827 26.3753 83.7798 26.2724ZM83.7112 21.4021C83.0595 22.0194 82.2021 22.4996 81.9963 23.4942H81.962C81.619 22.9112 81.276 22.3281 80.8644 21.7793C80.35 21.0591 80.4872 20.4074 79.4925 20.3731C78.8409 20.3388 78.2578 20.1673 78.3607 19.6529C77.9491 18.7268 77.2975 17.9723 76.5086 17.8351C75.8912 17.7322 75.4454 17.4578 75.0681 17.0462C75.0681 16.9433 75.171 16.909 75.171 16.8061C75.2396 16.3946 75.8226 16.2917 76.0284 15.9144C76.1313 15.7429 76.2685 15.6057 76.44 15.5028C76.6115 15.3999 76.9888 15.4342 77.0231 15.297C77.126 14.8512 77.7433 14.5768 77.8462 14.4396C77.8462 14.4396 77.7776 14.028 77.8462 13.9594C77.8462 13.8908 77.9834 14.028 77.9834 14.028C78.1549 14.1309 78.1206 14.5082 78.1206 14.4739C78.2235 14.4739 78.9095 14.714 79.0467 15.1941C79.1153 15.3656 79.2867 15.4685 79.4582 15.5371C79.8355 15.6743 80.35 15.7429 80.6587 16.0173C80.9673 16.2917 81.0016 16.8747 81.276 17.1834C82.0306 17.9723 82.888 18.2124 82.9223 18.3495C82.9566 18.9669 83.1281 19.3099 83.4368 19.5843C83.6426 19.7558 83.917 19.893 84.0885 20.0987C84.2943 20.3045 84.4314 20.5789 84.1228 20.6132H84.0542C84.0542 20.6132 84.2943 20.6132 84.5 20.6132C84.5686 20.6132 84.6029 20.6475 84.6372 20.6818H84.6029C84.1571 20.7161 84.1228 20.6475 84.1228 20.6818C84.0542 20.7847 83.7798 21.0934 83.6083 21.2649L83.7112 21.4021ZM84.7744 23.9058H84.6715C84.5 23.7343 84.4314 23.3914 84.5343 23.3228C84.5343 23.3228 84.6029 23.3228 84.6372 23.3228C84.8087 23.4942 84.8773 23.8029 84.7744 23.9058ZM85.0831 18.0752H84.9116C84.9116 18.0752 84.9116 17.938 84.9459 17.9037C84.9459 17.9037 85.0831 17.8694 85.1174 17.9037C85.1174 17.9037 85.1174 18.0066 85.1174 18.0752H85.0831ZM86.798 19.9616L86.5922 20.0987H86.455L86.2835 19.9959C86.2835 19.9959 86.4893 19.7901 86.5922 19.7558C86.6951 19.7558 86.8323 19.8244 86.9352 19.8587L86.8323 19.9273L86.798 19.9616Z" fill="#003C1F"/>
<path d="M39 69H57V72H39V69Z" fill="#F45436"/>
<path d="M33 66H39V69H33V66Z" fill="#F45436"/>
<path d="M57 66H63V69H57V66Z" fill="#F45436"/>
<path d="M30 60H33V66H30V60Z" fill="#F45436"/>
<path d="M39 60H57V63H39V60Z" fill="#F45436"/>
<path d="M63 60H66V66H63V60Z" fill="#F45436"/>
<path d="M36 57H39V60H36V57Z" fill="#F45436"/>
<path d="M57 57H60V60H57V57Z" fill="#F45436"/>
<path d="M33 48H36V51H33V48Z" fill="#F45436"/>
<path d="M39 48H42V51H39V48Z" fill="#F45436"/>
<path d="M54 48H57V51H54V48Z" fill="#F45436"/>
<path d="M60 48H63V51H60V48Z" fill="#F45436"/>
<path d="M36 45H39V48H36V45Z" fill="#F45436"/>
<path d="M57 45H60V48H57V45Z" fill="#F45436"/>
<path d="M39 30H57V33H39V30Z" fill="#F45436"/>
<path d="M27 42H30V60H27V42Z" fill="#F45436"/>
<path d="M45 54H51V57H45V54Z" fill="#F45436"/>
<path d="M45 42H48V57H45V42Z" fill="#F45436"/>
<path d="M66 42H69V60H66V42Z" fill="#F45436"/>
<path d="M30 36H33V42H30V36Z" fill="#F45436"/>
<path d="M63 36H66V42H63V36Z" fill="#F45436"/>
<path d="M33 33H39V36H33V33Z" fill="#F45436"/>
<path d="M57 33H63V36H57V33Z" fill="#F45436"/>
</svg>
