<svg width="48" height="45" viewBox="0 0 48 45" fill="none" xmlns="http://www.w3.org/2000/svg">
<path d="M47.5726 22.7099C47.5726 21.0586 47.5527 19.4073 47.294 17.776C47.2344 17.4577 47.2741 17.2388 46.9956 17.1393C46.737 17.0598 46.916 16.7613 46.9359 16.642C47.1349 16.4629 46.8962 15.687 46.7768 15.4682C46.2197 14.4735 46.1401 14.7719 46.0805 13.8567C46.0407 13.4986 46.1401 13.2599 45.9213 13.1405C45.782 13.0609 45.6826 12.9416 45.5632 12.8421L45.3046 12.7824C45.4239 12.5039 45.4836 12.7625 45.5632 12.8421C45.603 12.7028 45.7224 12.5437 45.6826 12.4442C45.5632 12.2055 45.3046 12.0463 45.225 11.8076C45.1653 11.6086 45.0658 11.5688 45.1255 11.3301C45.1255 11.2903 45.1056 11.2306 45.0658 11.1709C44.8072 10.6935 44.5486 10.216 44.2502 9.75841C43.5936 9.49978 43.8523 9.00241 43.5339 8.62441C43.4743 8.54483 43.335 8.54483 43.2554 8.46525C43.1361 8.36578 43.1559 8.02757 43.0366 7.9082C42.957 7.9082 42.8376 7.74904 42.8376 7.64957C42.3402 7.09252 41.9822 6.33652 41.2063 6.11768C40.7885 5.6402 40.2115 5.30199 40.0126 4.62557C39.9529 4.42662 39.5351 4.32715 39.2765 4.26747C39.1969 4.24757 39.177 4.28736 39.1372 4.34704C39.177 4.1481 39.1372 3.88947 38.8985 3.69052C38.3215 3.19315 38.0032 3.15336 37.3666 2.71568C37.287 2.65599 37.1278 2.65599 37.0682 2.67589C36.8095 2.77536 36.5111 2.35757 36.4912 2.21831C36.4514 1.93978 36.2127 1.68115 35.8944 1.66126C35.775 1.66126 35.6158 1.56178 35.5164 1.46231C35.2975 1.24347 35.019 1.08431 34.7206 0.945048C34.6211 0.885364 34.3625 0.82568 34.1038 0.746101C33.8651 0.686417 33.6264 0.606838 33.3876 0.586943C33.2683 0.586943 32.6515 0.467575 32.5919 0.567049C32.0945 0.626733 31.7364 0.785891 31.3982 0.905259C31.1992 1.00473 31.0401 1.16389 30.861 1.20368C30.4034 1.44242 30.5626 1.84031 30.483 2.15863C30.3438 2.2581 30.2244 2.33768 30.1647 2.53663C30.0652 2.73557 30.1448 3.13347 30.2244 3.33241C30.4233 3.73031 30.6024 4.08841 30.7019 4.42662C30.7814 4.70515 30.7814 4.9041 30.7217 5.18262C30.6621 5.44125 30.8212 5.69989 31.0401 5.87894C31.2788 6.05799 31.3584 6.25694 31.2987 6.53546C31.2788 6.67473 31.2987 6.83389 31.3385 6.97315C31.3982 7.1721 31.4578 7.27157 31.617 7.27157C31.6568 7.27157 31.8955 7.47052 31.9353 7.47052C32.0547 7.49041 31.5772 7.86841 31.8756 8.12704C32.2934 8.50504 32.4128 8.94273 32.3133 9.45999C32.2735 9.71862 32.3531 9.93746 32.5521 10.1165C32.751 10.3155 32.5719 10.1563 32.7709 10.3751C32.9301 10.5542 32.9102 10.7332 32.7112 10.8725C32.5322 10.9919 32.8306 11.5489 32.9102 11.7479C32.9897 11.9667 33.2484 12.1856 33.2086 12.3646C33.129 12.6829 33.1688 12.9018 33.4075 13.1405C33.6264 13.3594 33.3478 13.5981 33.3677 13.797C33.4672 14.553 33.3279 15.309 33.7258 16.0252C33.8253 16.2242 33.8054 16.4828 33.8253 16.7216C33.8253 17.2985 33.7855 17.8755 33.7258 18.4325C33.7059 18.7309 33.885 18.8901 33.8054 19.0691C33.7258 19.3079 33.3876 19.2482 33.4672 19.5665C33.5269 19.8052 33.507 19.9047 33.3279 20.0838C32.9897 20.422 32.8704 20.7801 32.9699 21.2377C33.0494 21.5162 32.8903 21.6554 32.751 21.8345C32.5521 22.0732 32.4327 22.3916 32.2934 22.69C32.174 22.9486 32.3332 23.3067 31.9353 23.5256C31.6767 23.6847 31.5175 24.0428 31.5772 24.4208C31.5772 24.4606 31.5971 24.5402 31.5772 24.5601C31.2589 24.8386 31.2788 25.3559 30.9406 25.5747C30.2841 26.0124 29.9856 26.6092 29.6872 27.2658C29.5877 27.4647 29.4684 27.5244 29.3092 27.604C29.0307 27.7631 29.0307 28.0814 28.8715 28.3003C28.7124 28.5589 28.3145 28.5987 28.1155 28.8772C28.036 28.9966 27.9564 29.116 27.9365 29.2552C27.8768 29.5537 27.6978 29.6332 27.4391 29.673C27.2203 29.6929 27.1606 29.8919 27.081 30.0709C26.9218 30.4887 26.5239 30.807 26.1459 30.8866C25.6486 31.006 25.2706 31.2646 24.8926 31.5232C24.5345 31.7421 24.1167 31.9609 23.8581 32.2593C23.5795 32.6174 22.923 32.2991 22.8832 32.9358C22.8832 32.9557 22.8036 32.9954 22.7639 32.9954C21.8288 32.896 21.1325 33.4729 20.3168 33.7315C20.0383 33.831 19.7995 34.03 19.4414 34.0101C19.2027 33.9902 18.9441 34.3284 18.7053 34.3085C18.4069 34.2886 18.1483 34.3085 17.8499 34.3682C17.7703 34.3881 17.6509 34.4279 17.6111 34.4875C17.5514 34.5472 17.5316 34.6666 17.5514 34.7462C17.5514 34.786 16.4572 34.7462 16.0991 34.7462C15.8007 34.7661 15.5222 34.9451 15.184 34.8456C15.1044 34.8258 14.9452 34.9849 14.8258 35.0247C14.7065 35.0645 14.5473 35.0645 14.428 35.0446C14.1494 34.9849 13.8112 35.2038 13.5725 35.0645C13.0154 34.7661 12.4783 34.786 11.9212 34.9849C11.7422 35.0645 11.6626 34.9053 11.5432 34.8655C11.205 34.7661 10.9862 35.4027 10.9862 35.4027C10.8071 35.4425 10.648 35.3231 10.5286 35.4425C10.3695 35.5818 10.5485 35.8006 10.449 36.0194C10.449 36.0393 10.3098 36.1388 10.3893 36.1786L10.4092 36.1985C10.3495 36.2383 10.2899 36.2781 10.2899 36.298C10.0909 36.3974 10.071 37.4916 10.1307 37.5911C10.3296 37.8895 10.8668 37.9293 10.9663 38.2675C11.2249 38.9241 11.8019 39.2822 12.3589 39.6005C12.4186 39.6403 12.5579 39.5806 12.6374 39.5408C12.8165 39.4413 13.0155 39.322 12.9558 39.6801C12.916 39.9188 13.2343 39.8591 13.4133 39.879H13.4332L13.5526 40.4361C13.7117 40.5355 13.9505 40.5753 14.1494 40.5554C14.2489 40.6947 14.3484 40.8141 14.4876 40.9135L14.6468 40.635C14.7861 40.6947 14.9253 40.7345 15.0049 40.8141C15.2437 40.9732 14.9651 41.3512 15.2039 41.3313C15.6415 41.2915 15.7211 41.8088 16.0991 41.9083C16.3975 41.9879 16.696 42.2664 16.9944 42.2863C17.3923 42.3261 17.6708 42.4852 17.9692 42.6643C18.0886 42.7439 18.2876 42.7836 18.4268 42.7439C18.6656 42.7041 18.7849 42.7836 18.9839 42.9229C19.2425 43.102 19.6205 43.3208 19.8592 43.2611C20.3765 43.102 20.6749 43.2213 21.0131 43.5396C21.0728 43.5993 21.2121 43.5993 21.3314 43.6192C21.6299 43.6789 21.9482 43.3805 22.2068 43.7386C22.6246 43.4601 22.8633 43.9574 23.2413 43.9574C24.4549 44.037 25.6685 44.1564 26.8821 44.0569C26.9815 44.0569 27.1208 44.037 27.1805 43.9773C27.3794 43.8381 27.5386 43.858 27.7574 43.9375C27.9166 43.9972 28.0757 43.7784 28.3145 43.8381C29.0108 43.9773 29.727 43.7585 30.4034 43.5794C30.4631 43.5595 30.483 43.4203 30.5228 43.3407C30.5825 43.3208 30.6024 43.3208 30.6819 43.3009C31.0997 43.1616 31.6568 43.5993 31.9751 42.9826C31.995 42.9229 32.1939 42.8831 32.2735 42.903C33.0096 43.1218 33.129 42.903 33.7656 42.6245C34.5813 42.2863 34.4619 41.8486 34.8797 41.9481C35.397 42.1072 35.8745 41.7292 36.0137 41.3313C36.0535 41.1921 36.2127 41.2318 36.3122 41.1324C36.5111 40.9334 36.4912 40.8936 36.6703 40.9931C36.7499 41.0329 36.8891 41.0727 36.9687 41.0329C37.5058 40.7743 38.0032 40.4162 38.5006 40.078C38.9781 39.7199 39.4953 39.3816 39.8534 38.8843C39.8733 38.3073 40.6293 38.3869 40.7686 37.9293C41.1068 37.8895 41.3654 37.6508 41.5644 37.3922C41.7832 37.1136 41.7434 36.7158 42.2209 36.5566C42.4795 36.477 42.6984 36.099 42.8774 35.8205C42.9769 35.6414 42.957 35.4027 43.0565 35.2038C43.136 35.0048 43.2554 34.7661 43.3947 34.6865C43.8721 34.4279 44.1308 34.0698 44.1308 33.5326C44.1308 33.2143 44.2303 32.896 44.3098 32.5975C44.3297 32.5379 44.4491 32.4981 44.5287 32.4981C44.6679 32.4782 44.8271 32.5578 44.8271 32.2792C44.8271 32.0206 44.8072 31.7421 44.8669 31.5033C44.9266 31.1651 45.225 31.0259 45.4239 30.807C45.9611 30.2301 46.1203 29.5139 46.1998 28.7579C46.1998 28.7181 46.16 28.6584 46.1401 28.6385C46.0407 28.539 46.1203 28.2804 46.2396 28.2406C46.4585 28.2008 46.538 27.982 46.5977 27.7631C46.737 27.1862 46.8563 26.6092 46.9956 26.0124C47.0752 25.4752 47.294 24.8784 47.1946 24.4009C47.1747 23.7444 47.5527 23.2868 47.5726 22.7099ZM30.5427 2.19842C30.6024 2.29789 30.6422 2.39736 30.7217 2.51673C30.5029 2.71568 30.5228 2.35757 30.5427 2.19842ZM31.239 5.46115C31.1992 5.44126 31.1594 5.42136 31.1395 5.40147C31.1395 5.36168 31.1594 5.30199 31.1793 5.30199C31.2191 5.30199 31.239 5.34178 31.2788 5.36168L31.239 5.46115ZM31.7364 4.24757C31.6767 4.16799 31.5971 4.08841 31.5772 4.00884C31.5573 3.94915 31.6369 3.88947 31.6767 3.82978C31.7364 3.90936 31.7961 3.98894 31.816 4.06852C31.816 4.10831 31.7563 4.18789 31.7364 4.24757ZM32.4327 3.15336C32.3929 3.09368 32.3133 2.9942 32.3332 2.95441C32.3531 2.91463 32.4327 2.93452 32.5123 2.93452C32.5321 3.0141 32.5918 3.09368 32.5719 3.13347C32.5719 3.15336 32.4725 3.13347 32.4327 3.15336ZM11.8616 37.8696C11.8417 37.8498 11.8416 37.81 11.8416 37.7702C11.9212 37.7702 12.0008 37.7901 12.0605 37.7901C12.0804 37.8299 12.0804 37.9094 12.0804 37.9691C12.0008 37.9293 11.9013 37.9094 11.8616 37.8696ZM13.2144 35.7608C13.2144 35.6812 13.294 35.6215 13.3337 35.5619C13.3735 35.6414 13.4332 35.7011 13.4332 35.7807C13.4332 35.8404 13.3537 35.92 13.3139 35.9796C13.2741 35.9001 13.1945 35.8404 13.2144 35.7608ZM13.4133 38.3272C13.3537 38.2675 13.3536 38.1283 13.3337 38.0089C13.473 38.0487 13.6322 38.0288 13.7317 38.1084C13.8112 38.1681 13.7913 38.3272 13.8112 38.4267C13.672 38.4068 13.5128 38.4068 13.4133 38.3272ZM45.3444 19.5267C45.3842 19.6063 45.4438 19.6859 45.4438 19.7655C45.4438 19.8251 45.3643 19.8649 45.3046 19.9246C45.2648 19.845 45.2051 19.7654 45.2051 19.7058C45.225 19.6262 45.3046 19.5665 45.3444 19.5267ZM45.4438 20.4618C45.4438 20.5016 45.3841 20.5413 45.3643 20.5413C45.3245 20.5413 45.3046 20.4817 45.2847 20.4618L45.3841 20.3822C45.404 20.4021 45.4438 20.4419 45.4438 20.4618ZM43.9915 10.594C44.0512 10.6537 44.1507 10.6935 44.1905 10.773C44.2104 10.8327 44.1905 10.9322 44.1706 11.0317C44.0711 10.9322 43.9716 10.8725 43.9318 10.7929C43.9119 10.7531 43.9716 10.6537 43.9915 10.594ZM44.2104 15.2692C44.2104 15.2891 44.1905 15.3488 44.1507 15.3687C44.1109 15.3687 44.091 15.3289 44.0512 15.309L44.1109 15.2096C44.1507 15.2295 44.2104 15.2295 44.2104 15.2692ZM42.1015 10.1762C42.1413 10.2359 42.1214 10.3354 42.1214 10.4149C42.0418 10.3751 41.9623 10.3354 41.9225 10.2757C41.8827 10.216 41.9026 10.1165 41.9026 10.0369C41.9622 10.0767 42.0617 10.0966 42.1015 10.1762ZM41.2858 8.20662C41.3256 8.20662 41.3853 8.20662 41.3853 8.22652C41.4052 8.24641 41.3853 8.32599 41.3654 8.32599C41.3455 8.34588 41.2858 8.30609 41.246 8.30609L41.2858 8.20662ZM38.8786 4.32715C38.9582 4.36694 39.0377 4.44652 39.1173 4.5062L38.9184 4.72504C38.8388 4.66536 38.7592 4.58578 38.6995 4.5062C38.6398 4.42662 38.62 4.32715 38.6001 4.24757C38.6995 4.28736 38.799 4.28736 38.8786 4.32715ZM39.0178 5.00357C38.7393 4.98368 38.8985 4.84441 38.9184 4.74494L39.0178 5.00357ZM37.9833 5.89883C38.0231 5.93862 38.0032 6.0381 38.0032 6.09778C37.9236 6.05799 37.8242 6.05799 37.7844 5.99831C37.7446 5.95852 37.7645 5.85904 37.7645 5.79936C37.8241 5.83915 37.9236 5.83915 37.9833 5.89883ZM37.0682 5.14283C37.108 5.18262 37.088 5.2821 37.088 5.34178C37.0085 5.32189 36.909 5.30199 36.8493 5.24231C36.8095 5.20252 36.8294 5.10304 36.8294 5.04336C36.909 5.08315 37.0085 5.10304 37.0682 5.14283ZM36.0535 3.05389C36.1331 3.17326 36.0933 3.21305 35.9541 3.17326C35.9342 3.17326 35.9341 3.11357 35.9341 3.07378C35.9739 3.07378 36.0336 3.05389 36.0535 3.05389ZM33.8054 3.15336C33.8651 3.17326 33.9049 3.27273 33.9447 3.33241C33.8651 3.33241 33.7855 3.3722 33.7059 3.33241C33.6463 3.29263 33.6264 3.21305 33.6264 3.17326C33.6662 3.17326 33.7258 3.13347 33.8054 3.15336ZM32.8704 8.16683C32.8306 8.14694 32.7709 8.12704 32.7709 8.10715C32.7908 7.96788 32.8505 7.96788 32.9102 8.06736C32.9301 8.08725 32.8903 8.12704 32.8704 8.16683ZM32.9301 0.86547C32.8107 0.805786 32.7311 0.686417 32.6316 0.606838C32.7908 0.606838 32.9897 0.646628 33.1489 0.686417C33.3081 0.726207 33.4274 0.82568 33.5468 0.885364C33.4871 0.905259 33.4274 0.964943 33.3677 0.945048C33.2285 0.964943 33.0494 0.945049 32.9301 0.86547ZM32.9102 23.2072C32.9102 23.2868 32.95 23.3863 32.9102 23.446C32.8903 23.5057 32.7908 23.5454 32.7112 23.5852C32.7112 23.5057 32.6714 23.4062 32.7112 23.3465C32.751 23.2868 32.8306 23.247 32.9102 23.2072ZM32.2337 25.8532C32.2934 25.8134 32.3531 25.8134 32.4128 25.8134C32.4526 25.8134 32.5123 25.893 32.4924 25.9328C32.4526 26.0721 32.3133 26.1318 32.194 26.0522C32.1741 26.0323 32.1343 25.9925 32.1542 25.9925C32.1741 25.9527 32.1939 25.8731 32.2337 25.8532ZM31.9353 25.0375C31.9552 25.0574 31.9751 25.1171 31.9552 25.137C31.9353 25.1569 31.8756 25.1569 31.8558 25.1768L31.8358 25.0574C31.8756 25.0574 31.9154 25.0375 31.9353 25.0375ZM31.8558 28.2008L32.0746 28.0814C32.0547 28.161 32.0746 28.2804 32.0149 28.3401C31.9751 28.3998 31.8756 28.4197 31.796 28.4594L31.8558 28.2008ZM31.5374 27.3254C31.5573 27.3453 31.5573 27.405 31.5573 27.4448H31.438C31.438 27.405 31.4181 27.3453 31.438 27.3453C31.4578 27.3055 31.5175 27.3055 31.5374 27.3254ZM29.8265 30.3494C29.8862 30.4091 29.9061 30.5086 29.9458 30.6081C29.9061 30.6081 29.8663 30.628 29.8464 30.6081C29.7469 30.5285 29.6673 30.429 29.5877 30.3494C29.5678 30.3295 29.5877 30.2898 29.5877 30.2301C29.6474 30.25 29.7469 30.2699 29.8265 30.3494ZM28.215 30.1107C28.3344 30.051 28.4537 30.0112 28.5731 29.9913C28.6328 29.9913 28.6925 30.1107 28.7124 30.1903C28.7124 30.2301 28.593 30.3295 28.5532 30.3295C28.4339 30.3295 28.3145 30.2898 28.1951 30.2699C28.1951 30.1903 28.1951 30.1306 28.215 30.1107ZM27.9166 31.2248C27.9564 31.2248 28.0161 31.2248 28.0161 31.2447C28.036 31.2646 28.0161 31.3442 27.9962 31.3442C27.9763 31.3641 27.9166 31.3442 27.8768 31.3243L27.9166 31.2248ZM27.2998 32.4583C27.3396 32.4583 27.3993 32.4583 27.3993 32.4782C27.4192 32.4981 27.3993 32.5776 27.3794 32.5776C27.3595 32.5975 27.2998 32.5776 27.26 32.5578L27.2998 32.4583ZM26.7428 31.006C26.8025 30.9662 26.9019 30.9861 26.9815 30.9662C26.9417 31.0458 26.9218 31.1452 26.8622 31.185C26.8025 31.2248 26.703 31.2049 26.6234 31.2248C26.6831 31.1452 26.6831 31.0458 26.7428 31.006ZM26.7428 32.6572C26.7627 32.6572 26.7229 32.7169 26.703 32.7567C26.6632 32.7567 26.5836 32.7368 26.5836 32.7368C26.5836 32.5975 26.6433 32.5777 26.7428 32.6572ZM22.8633 33.453C23.122 33.5724 22.8832 33.6321 22.8235 33.7116L22.8633 33.453ZM22.8235 33.7116C22.8633 33.7912 22.9031 33.8907 22.923 33.9703C22.9429 34.0499 22.9031 34.1493 22.8832 34.2289C22.8434 34.209 22.7639 34.209 22.744 34.1692C22.7042 34.0896 22.6445 33.9902 22.6644 33.9305C22.6843 33.8509 22.7638 33.7713 22.8235 33.7116ZM22.2665 34.6069C22.3262 34.587 22.3859 34.6467 22.4654 34.6865C22.4058 34.7462 22.3461 34.8258 22.2665 34.8456C22.2068 34.8655 22.1272 34.8059 22.0675 34.7661C22.1272 34.7263 22.1869 34.6467 22.2665 34.6069ZM20.9534 34.209C20.9932 34.2289 21.033 34.2488 21.0529 34.2687C21.0529 34.2886 21.033 34.3483 20.9932 34.3682C20.9534 34.3682 20.9335 34.3284 20.8937 34.3085L20.9534 34.209ZM20.2571 35.0645C20.3765 35.0844 20.3964 35.1441 20.277 35.2038C20.2571 35.2038 20.2173 35.164 20.1775 35.1441C20.2173 35.1242 20.2372 35.0645 20.2571 35.0645ZM19.3022 35.0247C19.3419 35.0247 19.3817 35.0645 19.4016 35.0844C19.4016 35.1242 19.3619 35.1441 19.342 35.1839L19.2425 35.1043C19.2624 35.0844 19.2823 35.0247 19.3022 35.0247ZM16.8551 36.0592L16.9745 35.8006C17.1933 35.9995 16.9546 35.9995 16.8551 36.0592L16.7358 36.298C16.5368 36.1189 16.7755 36.1388 16.8551 36.0592ZM16.6562 36.7158L16.8949 36.8152C16.8153 36.855 16.7557 36.9346 16.6761 36.9545C16.5965 36.9545 16.5169 36.8948 16.4373 36.855L16.6562 36.7158ZM14.9253 36.2582C15.0447 36.2383 15.184 36.3974 15.184 36.5367C15.184 36.5566 15.1641 36.5964 15.1442 36.5964C15.0248 36.6163 14.8855 36.4571 14.8855 36.3179C14.8855 36.298 14.9054 36.2781 14.9253 36.2582ZM15.6614 40.0581C15.6216 40.1177 15.5222 40.1376 15.4426 40.1774C15.4426 40.0979 15.4227 39.9984 15.4426 39.9387C15.4824 39.879 15.5819 39.8591 15.6415 39.8193C15.6813 39.8989 15.7012 39.9984 15.6614 40.0581ZM17.3724 40.8737L17.5315 41.0926C17.2729 41.1722 17.3923 40.9732 17.3724 40.8737ZM17.2132 40.6549C17.4918 40.5952 17.3525 40.7743 17.3724 40.8737L17.2132 40.6549ZM17.631 39.9387C17.5514 39.8392 17.5912 39.7795 17.7106 39.7994C17.7305 39.7994 17.7305 39.8591 17.7504 39.8989C17.6907 39.9188 17.631 39.9586 17.631 39.9387ZM20.2173 41.4905C20.2173 41.4109 20.1775 41.3114 20.2173 41.2517C20.2372 41.212 20.3367 41.1921 20.3964 41.1722L20.4163 41.4308L20.2173 41.4905ZM21.7691 41.59C21.7492 41.5104 21.6895 41.4308 21.7094 41.3512C21.7293 41.2915 21.8089 41.2318 21.8686 41.1722C21.8885 41.2517 21.9482 41.3313 21.9283 41.4109C21.9084 41.4905 21.8288 41.5303 21.7691 41.59ZM22.5251 43.281C22.4654 43.2611 22.4455 43.1616 22.3858 43.1218C22.4654 43.102 22.5649 43.0622 22.6445 43.102C22.7042 43.1219 22.7439 43.2213 22.7837 43.281C22.7042 43.281 22.6047 43.3009 22.5251 43.281ZM23.9575 42.2664C23.878 42.2664 23.8183 42.1868 23.7586 42.1271C23.8382 42.0873 23.9177 42.0475 23.9973 42.0475C24.0769 42.0475 24.1366 42.1271 24.1963 42.1868C24.1167 42.2266 24.0371 42.2863 23.9575 42.2664ZM28.593 42.4852C28.5134 42.5051 28.4338 42.4653 28.3543 42.4454C28.3941 42.3857 28.4339 42.3062 28.4935 42.2863C28.5731 42.2664 28.6527 42.3062 28.7323 42.3261C28.6925 42.4056 28.6527 42.4852 28.593 42.4852ZM30.6621 43.3805C30.4631 43.4004 30.6024 43.2213 30.6621 43.3805V43.3805ZM30.9008 42.3261C30.7814 42.3062 30.7615 42.2465 30.8809 42.1868C30.9008 42.1868 30.9406 42.2266 30.9605 42.2465C30.9406 42.2664 30.9207 42.3261 30.9008 42.3261ZM31.5772 42.4454C31.4379 42.4255 31.4379 42.3658 31.5573 42.3062C31.5772 42.3062 31.617 42.346 31.6568 42.3658C31.617 42.3857 31.5971 42.4454 31.5772 42.4454ZM32.7908 41.1523C32.7311 41.0926 32.6316 41.0528 32.6117 40.9931C32.5918 40.9334 32.6316 40.834 32.6515 40.7544C32.7112 40.8141 32.8107 40.8539 32.8306 40.9135C32.8505 40.9732 32.8107 41.0727 32.7908 41.1523ZM34.0243 41.3114C33.9447 41.3313 33.8651 41.2915 33.7656 41.2915C33.8253 41.2319 33.8651 41.1324 33.9447 41.1125C34.0044 41.0926 34.1039 41.1324 34.1834 41.1324C34.1436 41.1921 34.084 41.2915 34.0243 41.3114ZM33.9646 40.257C33.9646 40.2371 33.9845 40.1575 34.0044 40.1575C34.0441 40.1575 34.084 40.1774 34.1238 40.1973L34.064 40.2968C34.0441 40.2968 33.9845 40.2968 33.9646 40.257ZM35.8745 40.3963C35.7551 40.3565 35.6556 40.257 35.5761 40.1774C35.5562 40.1575 35.596 40.0979 35.6159 40.0183C35.7352 40.0382 35.8745 40.0382 35.9938 40.078C36.0535 40.0979 36.1132 40.2172 36.0933 40.257C36.0535 40.3167 35.9342 40.4162 35.8745 40.3963ZM37.287 39.1827C37.1676 39.2026 37.1278 39.1429 37.2074 39.0434C37.2074 39.0235 37.2671 39.0633 37.3069 39.0633C37.3069 39.1031 37.287 39.1827 37.287 39.1827ZM37.8839 38.7848C37.8441 38.8047 37.7446 38.7649 37.665 38.7649C37.7247 38.6853 37.7645 38.6057 37.8242 38.566C37.864 38.5461 37.9634 38.5859 38.0231 38.5859C37.9833 38.6455 37.9634 38.745 37.8839 38.7848ZM39.3163 38.7848C39.2765 38.7848 39.2168 38.7848 39.2168 38.7649C39.1969 38.745 39.2168 38.6654 39.2367 38.6455C39.2566 38.6256 39.3163 38.6455 39.356 38.6455L39.3163 38.7848ZM39.1173 37.6707L39.1372 37.5513L39.2566 37.5712C39.2566 37.611 39.2566 37.6707 39.2367 37.6707C39.1969 37.6906 39.1571 37.6707 39.1173 37.6707ZM40.0922 37.6707C39.9728 37.7105 39.933 37.6707 39.9927 37.5513C39.9927 37.5314 40.0723 37.5513 40.0922 37.5513C40.0922 37.611 40.0922 37.6707 40.0922 37.6707ZM40.5099 35.1242C40.3906 35.1839 40.3508 35.1242 40.4105 35.0247C40.4105 35.0048 40.49 35.0247 40.5099 35.0247C40.5099 35.0446 40.5099 35.1242 40.5099 35.1242ZM41.624 36.4969C41.6041 36.5168 41.5246 36.5168 41.5246 36.4969C41.5047 36.477 41.5246 36.4173 41.5246 36.3775H41.644C41.6241 36.4372 41.6439 36.4969 41.624 36.4969ZM41.9622 35.7011C41.9225 35.7608 41.823 35.8006 41.7434 35.8404C41.7434 35.7608 41.7036 35.6812 41.7434 35.6215C41.7832 35.5619 41.8827 35.542 41.9822 35.4823C41.9822 35.5619 42.002 35.6613 41.9622 35.7011ZM44.6082 24.202C44.4889 24.2219 44.4491 24.381 44.469 24.4805C44.5486 24.7192 44.5685 24.8983 44.4093 25.1171C44.3098 25.2564 44.5088 25.6344 44.3695 25.7538C44.0313 26.1119 44.0512 26.5694 43.9318 26.9673C43.8324 27.2857 43.9318 27.6637 43.8324 28.0019C43.713 28.3799 43.4345 28.6982 43.2753 29.0762C43.1559 29.3945 43.2156 29.8322 43.0963 30.1505C42.9769 30.5285 42.6785 30.7871 42.4596 31.0855C42.2607 31.3442 42.5591 31.762 42.1612 31.9609C41.823 32.1201 42.1413 32.7567 41.6042 32.8164C41.5644 32.8164 41.5246 32.9755 41.5246 33.075C41.5246 33.274 41.5445 33.4928 41.3256 33.5724C40.9675 33.6918 40.8283 33.9703 40.6094 34.2289C40.3508 34.5671 39.9529 34.8059 39.933 35.2833C39.5351 35.4624 39.2765 35.7608 38.9582 36.0393C38.7393 36.2383 38.5801 36.4372 38.4807 36.7356C38.3812 37.054 38.043 36.8948 38.0231 37.2728C38.0231 37.3126 37.9634 37.3524 37.9236 37.3524C37.844 37.3723 37.7048 37.4121 37.665 37.3922C37.3666 37.1534 37.1079 37.611 36.8493 37.7901C36.5708 37.989 36.2923 38.1681 36.1928 38.5262C35.2975 38.5461 34.7405 39.2026 33.9845 39.4811C33.6264 39.6005 33.2683 39.7199 33.0494 40.0979C32.9698 40.2371 32.6913 40.3366 32.5521 40.3167C31.995 40.2172 31.5175 40.3366 31.0599 40.635C30.9406 40.7146 30.8809 40.8141 30.7019 40.7942C30.0254 40.7743 29.3888 40.7942 28.8118 41.2517C28.7521 41.2915 28.5134 41.2318 28.4537 41.1324C28.414 40.9334 28.0161 41.0329 27.7375 41.2319L26.9418 41.4706C26.5837 41.2318 26.2653 41.1722 25.8873 41.4905C25.8078 41.5502 25.5491 41.3711 25.39 41.3114C24.9722 41.2318 24.5345 41.1921 24.1167 41.1523C23.6392 41.5303 23.2413 40.8936 22.8036 41.0528C22.5251 41.1722 22.3859 40.9533 22.1869 40.9135C21.7691 40.834 21.3712 40.6748 20.9534 40.5753C20.5555 40.456 20.1377 40.3366 19.6802 40.4162C19.6006 40.4361 19.4613 40.3963 19.4216 40.3366C18.7252 39.6403 17.8897 39.4811 16.9546 39.3419C16.8153 39.322 16.696 39.2225 16.5567 39.1628L16.3776 39.3021L16.2981 39.0434C16.0195 38.566 15.6018 38.2476 15.1243 38.0288H15.1044C14.985 37.9293 14.8457 37.8498 14.7065 37.7901C15.1044 37.7702 15.4824 37.7105 15.8604 37.6508C16.5368 37.5712 17.2928 37.6707 17.8697 37.1534C19.0833 37.4121 20.1377 36.5765 21.2717 36.3576C21.5304 36.3179 21.8089 36.3576 22.0675 36.3179C22.2068 36.298 22.4256 36.1388 22.4256 36.0791C22.4256 35.7608 22.5052 35.6812 22.8633 35.6613C23.0424 35.6613 23.1419 35.2634 23.4801 35.2833C23.7387 35.3032 24.0172 35.2435 24.2361 35.1242C24.6738 34.9252 25.2507 34.9053 25.4695 34.4279C26.0266 34.408 26.4643 34.0499 26.902 33.7514C27.081 33.6321 27.2402 33.4729 27.3197 33.2939C27.4192 33.0949 27.5585 33.1148 27.6977 33.075C27.9763 32.9954 28.1951 32.8562 28.3145 32.5975C28.4139 32.3389 28.5532 32.14 28.7919 31.9808C28.5731 31.7819 29.0108 31.6426 28.8914 31.8217C29.0307 31.8217 30.1647 30.9463 30.2443 30.8667C30.8013 30.1704 31.0202 29.7526 31.3584 29.4144C31.6767 29.0762 32.0547 28.7977 32.5919 28.161C32.7709 27.9024 32.751 27.6637 32.7311 27.405C32.7112 27.2658 33.308 26.8878 33.4473 26.7087C33.7059 26.2909 33.885 26.1119 34.1038 25.6742C34.2232 25.4354 34.3824 25.1569 34.3426 24.9381C34.2829 24.6198 34.1436 24.3611 34.3625 24.4407C34.6012 24.5402 35.1185 24.0428 35.3572 23.1873C35.775 21.4565 36.0535 20.8398 36.352 19.0691C36.4315 18.4524 36.8095 18.0147 36.3718 17.5372C36.153 17.2985 36.2525 17.3184 36.3718 16.8409C36.7299 16.6619 36.4713 16.1048 36.4912 15.7865C36.531 15.4284 36.1729 15.2295 36.2724 14.8912C36.5111 14.0756 36.2127 13.2798 36.0535 12.484C36.0336 12.4243 35.8944 12.3447 35.8148 12.3646C35.7352 12.3646 35.5761 12.0065 35.7352 11.9269C35.7949 11.8871 35.8546 11.7877 35.8745 11.6882C35.8944 11.5887 35.8745 11.4694 35.8347 11.3699C35.7352 10.9521 35.6357 10.5343 35.5164 10.1165C35.397 9.69872 35.1384 9.38041 34.9991 8.98252C34.8598 8.52494 34.8201 7.98778 34.6808 7.5302C34.5614 7.1721 34.2033 6.95325 34.2232 6.45589C34.2431 6.07789 33.9845 5.67999 33.8253 5.30199C33.7656 5.16273 33.7259 4.98368 33.6264 4.9041C33.4274 4.72505 33.2086 4.00883 33.3479 3.7701C33.3479 3.80989 32.95 3.49157 33.129 3.45178C33.1489 3.45178 33.1688 3.45178 33.2086 3.47168C33.2683 3.49157 33.3478 3.55126 33.3876 3.59105C33.4075 3.61094 33.4274 3.63084 33.4672 3.65073C33.5667 3.69052 33.6463 3.73031 33.8452 3.78999C34.4023 3.67062 34.82 3.92926 35.0986 4.42662C35.1583 4.54599 35.4169 4.58578 35.5959 4.62557C35.7949 4.66536 35.9541 4.66536 36.0734 4.86431C36.5111 5.6601 37.3069 6.0182 37.9833 6.55536C38.0828 6.63494 38.3016 6.65483 38.3215 6.73441C38.5006 7.29146 38.998 7.5501 39.3163 7.94799C39.9131 8.74378 40.9277 9.26104 41.1267 10.3155C41.1267 10.3354 41.2062 10.3751 41.246 10.3751C41.5644 10.4746 41.5445 10.8327 41.7036 11.0715C41.823 11.2903 42.0418 11.4097 42.1811 11.5887C42.3402 11.7877 42.3403 12.106 42.4397 12.3447C42.5392 12.5636 42.6387 12.8023 42.7978 12.9615C42.9968 13.1405 42.9968 13.3395 43.0764 13.5384C43.3748 14.3342 43.4544 15.2096 44.091 15.886C44.1706 15.9656 44.1706 16.1446 44.1706 16.2839C44.1905 16.5226 44.1706 16.7613 44.1706 16.9802C44.1507 17.2786 44.5685 17.4378 44.469 17.7163C44.3496 18.0744 44.4491 18.3728 44.4889 18.711C44.6679 20.044 44.8072 20.8597 44.7475 22.2324C44.7475 22.6502 44.4093 23.0083 44.5685 23.4659C44.6083 23.5653 44.8072 23.824 44.7674 24.003C44.6878 24.1821 44.7276 24.2418 44.6082 24.202ZM34.1834 15.7865C34.1834 15.7666 34.2431 15.7069 34.263 15.7069C34.3028 15.7069 34.3227 15.7666 34.3426 15.7865L34.263 15.8661C34.2431 15.8263 34.1834 15.8064 34.1834 15.7865ZM34.6808 13.8368C34.7007 13.8368 34.7405 13.8766 34.7604 13.9164C34.7405 13.9363 34.7007 13.996 34.6808 13.996C34.5614 13.9562 34.5614 13.8965 34.6808 13.8368ZM35.1782 16.6022C35.1981 16.6022 35.218 16.6619 35.2379 16.6818C35.218 16.7017 35.1782 16.7613 35.1583 16.7613C35.0588 16.7017 35.0588 16.6221 35.1782 16.6022ZM35.3572 15.7268C35.3572 15.687 35.4169 15.6472 35.4368 15.6472C35.4766 15.6472 35.4965 15.7069 35.5164 15.7268L35.4169 15.8064C35.397 15.7865 35.3572 15.7467 35.3572 15.7268ZM44.9067 18.5121C44.7077 18.333 44.9266 18.333 45.0061 18.2733L44.9067 18.5121ZM45.0061 18.2535L45.1056 18.0147C45.3245 18.1938 45.0857 18.1938 45.0061 18.2535ZM45.2648 20.9591C45.4637 20.9989 45.5831 21.1581 45.5035 21.3371C45.4836 21.3769 45.4438 21.4167 45.4041 21.4366L45.0459 21.0586L45.2648 20.9591ZM45.3046 25.9129C45.225 26.0124 45.1653 25.9925 45.1653 25.8731C45.1653 25.8532 45.225 25.8333 45.2648 25.8134C45.2648 25.8333 45.3046 25.893 45.3046 25.9129ZM45.0857 28.3202C45.0857 28.1212 45.2847 27.982 45.4637 28.0417C45.5035 28.0615 45.5632 28.1013 45.5632 28.1212C45.5433 28.2008 45.5433 28.3003 45.4836 28.3401C45.4239 28.3998 45.3245 28.4594 45.2449 28.4594C45.1852 28.4594 45.0857 28.36 45.0857 28.3202ZM45.1653 29.4741C45.0857 29.2154 45.2648 29.3149 45.3643 29.295L45.1653 29.4741ZM45.3841 29.295L45.5831 29.116C45.6826 29.3945 45.4836 29.2751 45.3841 29.295ZM45.6826 14.3541C45.7224 14.374 45.7622 14.3939 45.7821 14.4138C45.7821 14.4536 45.7621 14.5132 45.7223 14.5132C45.6826 14.5132 45.6627 14.4735 45.6229 14.4536L45.6826 14.3541ZM45.8019 18.6712C45.7621 18.6712 45.7422 18.6315 45.7223 18.5917L45.8019 18.5121C45.8218 18.532 45.8815 18.5718 45.8815 18.5917C45.8616 18.6315 45.8218 18.6712 45.8019 18.6712ZM47.0752 20.4419C47.0354 20.3623 46.9956 20.2628 46.9956 20.1832C46.9956 20.1236 47.0752 20.0838 47.1349 20.0241C47.1747 20.1037 47.2344 20.1832 47.2344 20.2827C47.2145 20.3225 47.1349 20.3822 47.0752 20.4419ZM10.6877 28.9767C10.9066 29.2353 11.0856 29.4741 11.4438 29.6332C11.5631 29.8322 11.7223 29.7128 11.8019 29.7526C12.1202 29.6133 12.339 29.4542 12.5181 29.295C12.6971 29.116 12.7966 28.9767 12.8364 28.9767C13.2144 28.9767 13.5725 28.6186 13.8311 28.1411C14.0102 27.8029 14.1494 27.4448 14.3086 27.1265C14.4678 26.8082 14.6667 26.47 14.8656 26.4302C15.0646 26.3307 15.0049 26.0721 14.9651 25.8333C14.9651 25.7538 14.985 25.6941 14.985 25.6145H15.0049C15.363 25.4553 15.5222 25.1569 15.6614 24.8585C15.6813 24.8187 15.7012 24.7789 15.7012 24.7391C15.7609 24.58 15.8206 24.4208 15.9002 24.2816C16.1389 23.8041 16.5368 23.3465 16.4373 22.7497C16.5766 22.5507 16.7556 22.3717 16.875 22.1727C17.0342 22.1926 17.2132 22.1926 17.4122 22.1329C17.6509 22.0732 17.8697 22.3319 18.1284 22.3319C18.2477 22.3319 18.3671 22.3717 18.4666 22.4313C18.5661 22.491 18.6655 22.69 18.7451 22.6701C19.0435 22.6104 19.2624 22.8093 19.521 22.869C19.6404 22.8889 19.8393 22.9088 20.0383 22.9088V23.0481C20.2571 23.1078 20.5356 23.1476 20.7744 23.0879C21.2717 22.9685 21.411 23.0083 21.3712 23.247C21.3911 23.4659 21.3513 23.3465 21.7492 23.446C22.0675 23.5256 22.366 23.5852 22.6843 23.625C22.9031 23.6648 23.2413 23.7643 23.5397 23.8041C23.8183 23.824 24.0371 23.7842 24.0371 23.6648C24.0371 23.4659 24.2759 23.4261 24.5743 23.5256C25.2905 23.8041 25.2109 23.6449 25.569 23.3465C25.6486 23.2868 25.7083 23.2072 25.7481 23.068L25.7879 22.9884C25.7083 22.8889 25.7679 22.9088 25.7679 22.8491C25.7878 22.7497 25.8077 22.69 25.8077 22.6701C25.8475 22.5109 26.1062 22.4512 26.1459 22.2921C26.1658 21.8743 25.947 21.4565 25.8475 20.9193C25.7282 20.3822 25.2109 19.7456 24.7931 19.1686C24.5345 18.8304 24.4151 18.6513 23.9973 18.0943C23.8382 17.8556 23.7984 17.5969 23.5397 17.3781C23.2612 17.1592 23.2015 17.02 23.0623 16.821C22.7439 16.4032 22.545 15.8661 21.9681 15.6671C21.8487 15.3687 21.789 15.0504 21.5503 14.8117C21.4309 14.7122 21.2916 14.5132 21.1325 14.3541C21.1524 14.2347 21.2121 14.1154 21.2121 13.9761C21.1922 13.7175 21.5105 13.5583 21.5503 13.3196C21.5702 13.2002 21.6299 13.1007 21.7094 13.0012C21.789 12.9018 22.0078 12.862 22.0078 12.7824C22.0078 12.4641 22.2466 12.3049 22.366 12.0662C22.4058 11.9667 22.4654 11.7678 22.5052 11.5688L22.6445 11.5887C22.744 11.3898 22.8235 11.1311 22.8235 10.8725C22.8036 10.3553 22.8633 10.2359 23.0822 10.3155C23.2811 10.3552 23.2015 10.3155 23.3408 10.017C23.48 9.71862 23.5994 9.44009 23.6989 9.14167C23.7586 9.0223 23.9973 8.44536 24.0371 8.32599C24.0968 8.06736 24.1167 7.82862 23.9973 7.80873C23.7984 7.76894 23.8183 7.51031 23.9973 7.25167C24.4151 6.61504 24.256 6.63494 24.0371 6.23704C23.9774 6.15746 23.9376 6.05799 23.8183 6.0182C23.7387 5.99831 23.7586 5.89883 23.6193 5.95852C23.5596 5.93862 23.4999 5.89883 23.4403 5.87894C23.2811 5.79936 23.2811 5.54073 23.1419 5.48104C22.9628 5.42136 22.7241 5.44126 22.5251 5.42136C22.2665 5.46115 22.0476 5.46115 21.7691 5.46115C21.232 5.48104 20.4958 5.83915 19.8592 6.13757C19.4613 6.31662 19.2624 6.4161 18.6059 6.71452C18.3472 6.83388 18.0886 6.7941 17.8101 7.03283C17.5514 7.27157 17.3923 7.29146 17.1734 7.39094C16.696 7.62967 16.1389 7.72915 15.8405 8.24641C15.741 8.2663 15.6416 8.2862 15.562 8.2862C15.4028 8.06736 15.184 7.9082 14.8855 7.80873C14.6468 7.72915 14.5871 7.39094 14.3882 7.25167C14.2887 7.19199 14.2091 7.09252 14.1494 6.99304C14.0898 6.89357 14.1295 6.67473 14.05 6.63494C13.7515 6.51557 13.6919 6.23704 13.4929 6.05799C13.4133 5.97841 13.2542 5.85904 13.0751 5.73968L13.1547 5.62031C12.9955 5.44126 12.7966 5.2821 12.538 5.20252C12.0605 5.04336 11.961 4.94389 12.1003 4.76483C12.1998 4.56589 12.1799 4.68526 11.8814 4.38683C11.6626 4.16799 11.4238 3.94915 11.1851 3.7502C11.026 3.61094 10.7673 3.33241 10.5485 3.15336C10.3297 2.9942 10.1108 2.89473 10.0511 3.0141C9.95165 3.17326 9.71293 3.09368 9.53388 2.85494C9.0763 2.2382 9.05638 2.41726 8.57891 2.47694C8.51922 2.47694 8.47943 2.49684 8.41975 2.51673C8.36006 2.57642 8.28048 2.6361 8.2009 2.69578C8.18101 2.87484 8.06165 2.87484 8.02186 2.95441C7.90249 3.07378 7.66377 2.9942 7.5444 3.09368C7.32556 3.43189 7.26587 3.90936 7.06692 4.40673C6.88787 4.92399 7.00725 5.73968 7.04704 6.45589C7.08683 6.89357 7.1067 7.09252 7.14649 7.80873C7.16638 8.10715 7.04703 8.32599 7.1664 8.6642C7.28577 8.98251 7.26587 9.14167 7.28576 9.38041C7.34545 9.91757 7.22608 10.4746 7.62397 10.9322C7.58418 11.2306 7.4847 11.529 7.52449 11.8275C7.40512 11.907 7.30564 12.0264 7.20617 12.1458C7.06691 12.3447 6.7287 12.285 6.52975 12.4243C6.45018 12.484 6.3308 12.5437 6.21143 12.5636C6.09206 12.5835 5.91303 12.484 5.85334 12.5437C5.65439 12.7824 5.35597 12.7426 5.13713 12.8421C4.95808 12.9217 4.63978 13.2599 4.5602 13.3196C4.48062 13.3792 4.26175 13.3792 4.22196 13.3991C3.88375 13.4787 3.42619 13.4787 3.18746 13.5981C2.92883 13.7374 2.23249 14.1551 1.61576 14.2944C1.39692 14.3541 1.17809 14.5132 1.03882 14.6326C0.760298 14.9509 0.640921 15.2692 0.501658 15.5279C0.282816 15.7865 0.0838688 16.0053 0.00428996 16.4032C-0.0752889 17.3383 0.979134 17.5372 0.939344 17.6566C1.01892 18.0346 1.4367 18.3131 1.95396 18.4723C2.33196 18.5917 2.69009 18.6513 3.0283 18.7508C3.20735 18.7906 3.36651 18.8503 3.52566 18.9299C3.66493 18.9896 3.70471 19.0492 3.80419 19.1686C3.92356 19.3477 4.20209 19.2482 4.40104 19.1487C4.48061 19.1288 4.5403 19.1288 4.61988 19.1288V19.1487C4.85862 19.467 5.15704 19.5665 5.49525 19.6461C5.53504 19.666 5.57483 19.666 5.61461 19.666C5.77377 19.7058 5.95283 19.7257 6.11198 19.7655C6.62925 19.9047 7.1465 20.2031 7.72345 19.9843C7.94229 20.1037 8.16112 20.2429 8.41975 20.3225C8.41975 20.3424 8.41975 20.3424 8.41975 20.3424C8.26059 20.8398 8.34019 21.2973 8.71819 21.7151C8.89724 21.8942 8.75796 22.2125 8.85743 22.4313C8.91712 22.5308 8.93701 22.6502 8.91712 22.7696C8.91712 22.8889 8.77788 23.0481 8.81767 23.1078C9.01661 23.3465 8.91714 23.625 8.97683 23.8837C9.01662 24.0826 9.27524 24.4407 9.31503 24.5402C9.35482 24.6397 9.31503 24.8585 9.31503 24.8983C9.33493 25.2564 9.21556 25.6742 9.31503 25.9726C9.41451 26.271 9.65322 27.0071 9.69301 27.6637C9.7129 27.8825 9.81238 28.1411 9.91185 28.3003C10.1904 28.6186 10.4689 28.7977 10.6877 28.9767ZM25.191 22.0732C25.191 22.0931 25.1512 22.0931 25.1313 22.113L25.0318 22.0136C25.0517 21.9937 25.0716 21.9738 25.0915 21.9738C25.1313 21.9738 25.191 22.0334 25.191 22.0732ZM24.8329 20.5016C24.9125 20.5811 25.012 20.6607 25.0716 20.7403C25.0915 20.8 25.0319 20.8398 25.012 20.8796C24.9125 20.8 24.813 20.7204 24.7732 20.6408C24.7334 20.601 24.813 20.5413 24.8329 20.5016ZM24.5146 21.1581C24.5345 21.1581 24.6141 21.2178 24.634 21.2377C24.6539 21.2576 24.6141 21.2576 24.5942 21.2774L24.4549 21.1979C24.4748 21.178 24.4947 21.1581 24.5146 21.1581ZM23.6392 18.6911L23.5397 18.91C23.5198 18.8105 23.3806 18.6911 23.6392 18.6911ZM23.3607 19.1487C23.4403 19.0492 23.4204 19.0095 23.5199 18.91C23.5398 18.9498 23.5795 18.9697 23.5795 19.0095C23.6193 19.1288 23.6591 19.1686 23.6989 19.2681C23.5795 19.2681 23.5795 19.3875 23.4602 19.3875C23.3408 19.3875 23.2811 19.2482 23.3607 19.1487ZM23.4403 19.845C23.4801 19.8848 23.4801 19.9644 23.4801 20.0241C23.4005 20.0042 23.301 20.0241 23.2811 20.0042C23.2413 19.9644 23.2612 19.9047 23.2612 19.8251C23.3209 19.8251 23.4204 19.8052 23.4403 19.845ZM22.9429 22.1329C22.923 22.1329 22.8832 22.0732 22.8434 22.0533V21.9539C22.8832 21.9937 22.923 22.0136 22.9429 22.0533C22.9628 22.0931 22.9628 22.1329 22.9429 22.1329ZM23.0225 17.7561C23.0424 17.776 23.0424 17.8158 23.0424 17.8556L22.9628 17.9351L22.8434 17.8953L22.8235 17.6765C22.9031 17.7163 22.9827 17.7163 23.0225 17.7561ZM22.7241 6.33652C22.7439 6.33652 22.744 6.37631 22.744 6.3962C22.7042 6.4161 22.6644 6.43599 22.6246 6.45589C22.6246 6.43599 22.5848 6.4161 22.6047 6.3962C22.6246 6.3962 22.6843 6.35641 22.7241 6.33652ZM22.2068 8.58462C22.2267 8.56473 22.2864 8.58462 22.2864 8.60452C22.2864 8.62441 22.2267 8.6642 22.1869 8.68409L22.0874 8.6642C22.1471 8.62441 22.1869 8.58462 22.2068 8.58462ZM2.45133 15.6472C2.49112 15.6472 2.53094 15.687 2.51104 15.7069C2.51104 15.7268 2.41157 15.7069 2.35188 15.7069L2.27229 15.6472C2.33197 15.6472 2.41154 15.6472 2.45133 15.6472ZM2.41156 16.065C2.45135 16.065 2.53093 16.0849 2.53093 16.1048C2.53093 16.1048 2.43145 16.1247 2.37177 16.1247L2.23249 16.0849C2.29217 16.0849 2.35188 16.065 2.41156 16.065ZM2.23249 17.955C2.1728 17.9152 2.21262 17.8357 2.19272 17.776C2.29219 17.7959 2.43147 17.7959 2.51104 17.8357C2.57073 17.8556 2.55083 17.9351 2.57073 17.9948C2.45136 17.9948 2.31207 17.9948 2.23249 17.955ZM2.70997 17.4776C2.70997 17.4577 2.69008 17.4179 2.70997 17.398C2.72987 17.3781 2.80946 17.3582 2.84925 17.3781C2.86915 17.3781 2.84925 17.4179 2.84925 17.4577L2.70997 17.4776ZM3.46598 15.7865C3.46598 15.7467 3.42619 15.7069 3.46598 15.687C3.48588 15.6671 3.60525 15.7268 3.68482 15.7467C3.68482 15.7865 3.72461 15.8263 3.68482 15.8462C3.64504 15.8263 3.54556 15.8064 3.46598 15.7865ZM3.68482 14.8515C3.62514 14.8912 3.52565 14.8714 3.44607 14.8714C3.44607 14.8117 3.44608 14.7122 3.48587 14.6923C3.54555 14.6525 3.64501 14.6724 3.72459 14.6724C3.72459 14.7321 3.72461 14.8316 3.68482 14.8515ZM10.648 25.9726C10.5883 25.9527 10.4888 25.9527 10.4888 25.893C10.4689 25.8134 10.5087 25.7339 10.5087 25.6543C10.5684 25.6941 10.648 25.6941 10.6679 25.7339C10.6878 25.7936 10.648 25.893 10.648 25.9726ZM10.4291 23.9831C10.4291 23.9036 10.4291 23.824 10.6082 23.9036L10.5485 23.9433L10.4291 23.9831ZM11.1453 25.2962C11.026 25.2564 10.9862 25.3559 10.8867 25.2962C10.7673 25.2365 10.7673 25.0773 10.8867 25.0375C11.0061 24.9779 11.0061 24.9381 11.1254 24.8983C11.1254 24.9381 11.1453 24.9779 11.1453 25.0177C11.1254 25.137 11.1652 25.1967 11.1453 25.2962ZM10.9663 23.7245L11.0459 23.5256C11.1055 23.5852 11.1851 23.625 11.1851 23.6847C11.1851 23.7245 11.1851 23.7444 11.1652 23.7842L11.0459 23.824L10.9663 23.7245ZM11.2448 27.2061L11.1652 27.2857C11.1851 27.226 11.1851 27.1663 11.205 27.1066C11.2249 27.0668 11.2647 27.0469 11.2647 27.0469C11.2647 27.0668 11.2448 27.1464 11.2448 27.2061ZM11.1254 24.8983C11.1652 24.8187 11.0857 24.6397 11.3244 24.7391L11.1254 24.8983ZM11.5233 26.1318C11.4836 26.1318 11.4239 26.1517 11.4239 26.1119C11.4239 26.0721 11.4836 25.9726 11.5233 25.9129C11.5631 25.9129 11.6029 25.893 11.6029 25.9328C11.6029 25.9527 11.5432 26.0522 11.5233 26.1318ZM11.6427 27.2857L11.583 27.4249C11.583 27.3652 11.583 27.2857 11.6029 27.226C11.6228 27.1862 11.6626 27.1066 11.6626 27.1265C11.6626 27.1265 11.6427 27.226 11.6427 27.2857ZM12.9558 27.2061C12.9359 27.1862 12.9359 27.0867 12.9558 27.0668C12.9558 27.0469 12.9955 27.0668 13.0353 27.0668V27.226C12.9955 27.226 12.9757 27.226 12.9558 27.2061ZM13.3934 27.8029C13.3536 27.8427 13.2741 27.8029 13.2144 27.8029C13.2542 27.7034 13.2741 27.5841 13.3337 27.5045C13.3735 27.4448 13.4332 27.4846 13.5128 27.4647C13.473 27.5841 13.4531 27.7233 13.3934 27.8029ZM13.6123 25.7339C13.5725 25.714 13.5526 25.6145 13.5327 25.5548L13.7714 25.5946L13.851 25.7737C13.7714 25.7538 13.672 25.7737 13.6123 25.7339ZM14.7065 21.6157C14.7861 21.6157 14.8657 21.5759 14.9452 21.6157C15.0049 21.6356 15.0447 21.7151 15.1044 21.7748C15.0248 21.7748 14.9452 21.8146 14.8855 21.7748C14.806 21.7549 14.7662 21.6753 14.7065 21.6157ZM15.0646 23.4062C14.9253 23.3465 14.8457 23.1873 14.8855 23.1078C14.9054 23.1078 14.9253 23.0879 14.9452 23.0879C15.0646 23.1476 15.184 23.3067 15.1243 23.3863C15.1243 23.4062 15.0845 23.4062 15.0646 23.4062ZM17.3326 21.6356C17.3127 21.556 17.2729 21.4764 17.2928 21.4167C17.3127 21.357 17.3923 21.2973 17.452 21.2377C17.4719 21.3172 17.5117 21.3968 17.4918 21.4565C17.4719 21.5162 17.3923 21.5759 17.3326 21.6356ZM18.8048 21.2774C18.8048 21.2576 18.7849 21.2377 18.7849 21.2178C18.8247 21.0785 18.964 20.9591 19.0634 20.979C19.0833 20.979 19.0833 21.0188 19.0833 21.0387C19.0236 21.1979 18.8844 21.3172 18.8048 21.2774ZM21.4906 22.0931L21.4707 21.8544L21.6298 21.735C21.6298 21.8146 21.6696 21.8942 21.6498 21.9738C21.61 22.0334 21.5304 22.0533 21.4906 22.0931ZM22.5649 21.4963C22.545 21.4963 22.4853 21.3968 22.4455 21.3371C22.4654 21.2973 22.4654 21.2377 22.4853 21.2576C22.5052 21.2576 22.5649 21.357 22.6047 21.4167C22.6047 21.4565 22.6047 21.5162 22.5649 21.4963ZM22.6246 18.2535L22.5848 18.3131L22.4853 18.4126C22.4654 18.333 22.4256 18.2535 22.6246 18.2535ZM21.5503 17.1791C21.6497 17.0996 21.8487 17.0797 21.9084 17.1592C21.9084 17.1791 21.9084 17.199 21.8885 17.2189C21.7691 17.3184 21.5901 17.3184 21.5304 17.2587C21.5304 17.2189 21.5304 17.199 21.5503 17.1791ZM21.789 6.71452C21.8089 6.69462 21.8089 6.73441 21.8288 6.75431L21.7094 6.87367C21.7094 6.85378 21.6697 6.83389 21.6896 6.81399C21.7094 6.7941 21.7691 6.73441 21.789 6.71452ZM21.8885 9.85788C21.9283 9.87778 21.9482 9.97725 21.9681 10.0369L21.7293 10.017L21.6498 9.83799C21.7293 9.83799 21.8089 9.83799 21.8885 9.85788ZM21.5901 8.84325C21.5702 8.86315 21.4707 8.90294 21.411 8.92283C21.3911 8.90294 21.3314 8.88304 21.3513 8.86315C21.3712 8.84325 21.4707 8.80346 21.5304 8.76367C21.5702 8.78357 21.61 8.80346 21.5901 8.84325ZM21.3911 6.19725C21.4508 6.17736 21.4707 6.25694 21.5105 6.29673C21.411 6.37631 21.3115 6.45589 21.232 6.47578C21.1723 6.49568 21.1524 6.4161 21.1126 6.37631C21.2121 6.31662 21.3115 6.23704 21.3911 6.19725ZM20.1974 7.62967C20.2571 7.58988 20.3168 7.62967 20.3765 7.62967C20.3566 7.68936 20.3367 7.80873 20.3168 7.80873C20.277 7.82862 20.2173 7.80873 20.1377 7.80873C20.1576 7.72915 20.1577 7.64957 20.1974 7.62967ZM19.4016 7.31136C19.521 7.29146 19.5608 7.25167 19.6802 7.25167C19.6603 7.37104 19.7796 7.39094 19.7398 7.51031C19.72 7.62967 19.5608 7.66946 19.4812 7.56999C19.4017 7.47052 19.3619 7.49041 19.2823 7.37104C19.3221 7.33125 19.3619 7.31136 19.4016 7.31136ZM19.2823 7.35115C19.2027 7.35115 19.0435 7.45062 19.0833 7.21188L19.2823 7.35115ZM18.5263 8.16683L18.6059 8.2862C18.5263 8.30609 18.4467 8.32599 18.4666 8.12704L18.5263 8.16683ZM18.0687 7.62967C18.0886 7.60978 18.1284 7.60978 18.1682 7.62967L18.2279 7.72915L18.1682 7.82862L17.9493 7.80873C17.9891 7.74904 18.009 7.64957 18.0687 7.62967ZM17.253 8.60452C17.2729 8.60452 17.2928 8.62441 17.3127 8.6443C17.3923 8.76367 17.3724 8.96262 17.2729 9.00241C17.253 9.00241 17.2132 8.98252 17.2132 8.98252C17.1536 8.84325 17.1734 8.64431 17.253 8.60452ZM16.4572 10.017C16.497 10.0767 16.4771 10.1762 16.4771 10.2558C16.4174 10.216 16.318 10.1762 16.2981 10.1165C16.2583 10.0568 16.2782 9.95736 16.2782 9.87778C16.3379 9.93746 16.4174 9.95736 16.4572 10.017ZM14.4479 8.38567C14.5076 8.34588 14.5871 8.32599 14.6667 8.30609C14.6468 8.38567 14.6269 8.46525 14.5672 8.52494C14.5076 8.56473 14.428 8.56473 14.3484 8.60452C14.3882 8.52494 14.4081 8.44536 14.4479 8.38567ZM12.8961 7.9082C12.9955 7.80873 13.1746 7.78883 13.2343 7.84852C13.2343 7.86841 13.2343 7.9082 13.2144 7.9082C13.1149 8.00767 12.916 8.02757 12.8563 7.96788C12.8762 7.94799 12.8961 7.9082 12.8961 7.9082ZM11.205 5.75957C11.2448 5.71978 11.3244 5.73968 11.404 5.73968L11.3045 5.95852L11.1254 5.97841C11.1254 5.89883 11.1453 5.79936 11.205 5.75957ZM10.1705 4.94389C10.1904 4.94389 10.1904 5.02347 10.2103 5.06326L10.1506 5.14283C10.1307 5.10304 10.1108 5.04336 10.1108 5.00357C10.1108 4.96378 10.1506 4.92399 10.1705 4.94389ZM10.1506 5.67999C10.1705 5.69989 10.1705 5.79936 10.1705 5.87894C10.1307 5.89883 10.1108 5.93862 10.0909 5.91873C10.071 5.89883 10.071 5.77946 10.071 5.71978C10.0909 5.69989 10.1307 5.6601 10.1506 5.67999ZM9.49408 10.972C9.57366 10.972 9.65324 11.0118 9.71292 11.0317C9.65324 11.0715 9.59354 11.151 9.51396 11.151C9.43438 11.151 9.3747 11.1112 9.29512 11.0914C9.3747 11.0516 9.43439 10.972 9.49408 10.972ZM8.59882 6.43599C8.65851 6.47578 8.73809 6.53546 8.75798 6.55536C8.75798 6.61504 8.71817 6.65483 8.69827 6.71452C8.63859 6.67473 8.55902 6.65483 8.55902 6.61504C8.53913 6.55536 8.57893 6.49568 8.59882 6.43599ZM8.81767 9.83799C8.79777 9.85788 8.79776 9.87778 8.77787 9.87778C8.63861 9.89767 8.45955 9.7982 8.45955 9.71862C8.45955 9.69872 8.47945 9.67883 8.49934 9.67883C8.63861 9.65894 8.79777 9.73851 8.81767 9.83799ZM8.47946 8.36578L8.59882 8.34588C8.57893 8.42546 8.57892 8.50504 8.39986 8.42546L8.47946 8.36578ZM8.2805 3.78999L8.30038 3.92926C8.28049 3.92926 8.24071 3.94915 8.22082 3.92926C8.20092 3.90936 8.18101 3.82978 8.2009 3.80989C8.2208 3.7701 8.24071 3.78999 8.2805 3.78999ZM8.37998 4.92399C8.36008 4.92399 8.34019 4.94389 8.3203 4.92399C8.3004 4.9041 8.26062 4.82452 8.26062 4.78473C8.26062 4.76483 8.3004 4.76483 8.3203 4.76483L8.37998 4.92399ZM8.02186 6.97315C8.14123 7.03283 8.18103 6.93336 8.2805 6.99304C8.37997 7.05273 8.36007 7.21188 8.2407 7.25167C8.12133 7.29146 8.12135 7.35115 7.98209 7.37104C7.98209 7.33125 7.9622 7.29146 7.98209 7.25167C8.00199 7.13231 7.98207 7.07262 8.02186 6.97315ZM7.84281 8.52494L7.96218 8.50504L8.04177 8.60452L7.94229 8.80346C7.9025 8.74378 7.82291 8.70399 7.80302 8.6443C7.80302 8.58462 7.82292 8.54483 7.84281 8.52494ZM7.76325 7.51031L7.96218 7.37104C7.94228 7.45062 8.00198 7.64957 7.76325 7.51031ZM7.62397 5.00357C7.62397 4.94389 7.70356 4.94389 7.76325 4.92399C7.80304 5.04336 7.84281 5.16273 7.84281 5.24231C7.84281 5.30199 7.76322 5.30199 7.70354 5.32189C7.66375 5.22241 7.62397 5.10304 7.62397 5.00357ZM7.66377 12.5238C7.68366 12.6232 7.72345 12.7227 7.78313 12.8023C7.78313 12.8222 7.78313 12.8421 7.78313 12.8819C7.72345 12.8222 7.64387 12.8023 7.62397 12.7227C7.60408 12.663 7.62397 12.5636 7.62397 12.484C7.62397 12.5039 7.64387 12.5238 7.66377 12.5238ZM6.7088 13.6777C6.72869 13.6976 6.74862 13.6976 6.76851 13.7175C6.8282 13.8368 6.78839 14.0358 6.68892 14.0557C6.66902 14.0557 6.64913 14.0358 6.62923 14.0159C6.58945 13.8766 6.62922 13.6976 6.7088 13.6777ZM5.71406 14.752L5.93291 14.7918C5.89312 14.8515 5.87323 14.9509 5.81354 14.9708C5.79365 14.9907 5.75385 14.9708 5.71406 14.9708L5.65438 14.8714L5.71406 14.752ZM5.45545 14.4337L5.39577 14.3939L5.33609 14.2745C5.41567 14.2745 5.49524 14.2546 5.45545 14.4337ZM4.77904 15.309L4.58008 15.1499C4.67955 15.1499 4.83872 15.0504 4.77904 15.309ZM4.40104 14.931C4.48061 15.0305 4.5204 15.0305 4.58008 15.1499C4.54029 15.1698 4.52039 15.1897 4.4806 15.1897C4.36123 15.1897 4.32144 15.2295 4.20208 15.2494C4.22197 15.13 4.10261 15.1101 4.1424 14.9907C4.18218 14.8515 4.32146 14.8316 4.40104 14.931ZM4.28167 17.9948C4.28167 17.9152 4.26178 17.8357 4.28167 17.7561C4.30157 17.7163 4.38112 17.6765 4.4408 17.6367V17.8755L4.28167 17.9948ZM6.86796 18.7906C6.84807 18.7906 6.84808 18.7508 6.84808 18.7309C6.88787 18.5917 7.00725 18.4723 7.10672 18.4922C7.10672 18.5121 7.1266 18.532 7.1266 18.5519C7.08681 18.6911 6.94754 18.8105 6.86796 18.7906ZM8.41975 18.4524C8.39985 18.3728 8.36007 18.2932 8.36007 18.2336C8.37996 18.154 8.43966 18.0943 8.49934 18.0346C8.51924 18.1142 8.55902 18.1938 8.55902 18.2535C8.53913 18.333 8.47943 18.3927 8.41975 18.4524ZM9.01659 19.0691C9.03649 19.0492 9.0365 19.0293 9.05639 19.0293C9.05639 19.0293 9.05638 19.0492 9.07628 19.0492C9.03649 19.0492 9.03649 19.0691 9.01659 19.0691ZM9.3548 21.4366C9.27522 21.4565 9.19565 21.4167 9.11607 21.3968C9.17576 21.357 9.23544 21.2775 9.29512 21.2576C9.3548 21.2377 9.45428 21.2973 9.51396 21.3172C9.49407 21.357 9.43438 21.4167 9.3548 21.4366ZM9.93176 20.5413C9.91187 20.5413 9.85218 20.5215 9.83228 20.5016C9.83228 20.4817 9.87207 20.4419 9.89197 20.4021L10.0113 20.4618C9.99144 20.4817 9.97155 20.5413 9.93176 20.5413ZM9.71292 17.7959C9.31503 17.4577 8.87733 17.3582 8.36007 17.5571C8.14122 17.6367 7.9025 17.398 7.66377 17.4179C7.5444 17.4179 7.44492 17.398 7.34545 17.3383C7.24597 17.2786 7.16638 17.0996 7.0868 17.0996C6.78838 17.1791 6.58945 16.9603 6.35071 16.9205C6.25124 16.9006 6.05229 16.8807 5.85334 16.8807V16.7415C5.65439 16.6818 5.39575 16.642 5.15701 16.6818C4.67954 16.7812 4.56018 16.7415 4.59996 16.5027C4.67954 16.3237 4.4607 16.3436 4.4408 16.3237L4.42092 16.3038C4.40102 16.2839 4.56019 16.1844 4.24187 16.3635C4.00314 16.4828 3.86387 16.4828 4.08271 16.3834C4.59998 16.1645 4.5204 16.2441 4.30156 16.264C4.22198 16.2839 3.88375 16.2839 3.88375 16.2242C3.90365 16.1844 4.32146 16.2043 4.28167 16.2043C4.20209 16.1844 4.1623 16.1048 4.34135 16.1645C4.50051 16.2242 4.40101 16.1645 4.4408 16.1446L4.75913 16.0054C4.89839 15.9457 5.01776 15.9059 5.25649 15.8064C5.51513 15.7069 5.77376 15.7666 6.03239 15.5478C6.29102 15.3488 6.47007 15.3289 6.68892 15.2494C7.16639 15.0504 7.74335 15.0106 8.10145 14.5132C8.41977 14.4735 8.73809 14.5132 9.03651 14.3541C9.27525 14.2148 9.7925 14.0358 9.93176 13.7771C10.0312 13.5981 10.3098 13.5384 10.2103 13.2201C10.1307 13.24 10.0312 12.9814 10.0909 12.9416C10.0909 12.9217 10.071 12.9018 10.071 12.8819C10.2501 12.8023 10.5485 12.6431 10.4689 12.4442C10.4291 12.3447 10.27 12.285 10.3297 12.1259C10.5286 11.6285 10.4888 11.151 10.1307 10.7134C9.97154 10.5144 10.1307 10.216 10.0312 9.99715C9.99146 9.89767 9.97155 9.7783 9.99145 9.65893C10.0113 9.53957 10.1506 9.38041 10.1108 9.32072C9.93176 9.06209 10.0511 8.80346 10.0113 8.54483C9.97154 8.34588 9.75271 7.96788 9.71292 7.86841C9.67313 7.76894 9.73283 7.56999 9.75272 7.5302C9.77261 7.23178 9.91186 6.67473 9.89197 6.65483C9.87207 6.65483 9.7726 6.55536 9.95165 6.63494C10.0113 6.65483 9.99146 6.65483 9.97156 6.63494C9.89198 6.57525 9.71292 6.35641 9.71292 6.29673C9.71292 6.23704 9.97156 6.57525 9.97156 6.61504C9.97156 6.61504 9.97156 6.61504 9.97156 6.59515C9.93177 6.49567 9.93175 6.19725 9.95165 6.27683C10.0312 6.63494 9.99144 6.67473 10.0113 6.61504C10.0312 6.57525 10.071 6.51557 10.0909 6.49568C10.1307 6.47578 10.1108 6.49568 10.1904 6.7742C10.2103 6.97315 10.4689 6.99304 10.7077 7.01294C10.7872 7.03283 10.8469 7.05273 10.8867 7.09252L10.8668 7.11241C10.9066 7.49041 11.1055 7.72915 11.3244 7.94799C11.3443 7.98778 11.3841 8.00767 11.4239 8.02757C11.5432 8.12704 11.6626 8.24641 11.7621 8.36578C12.1003 8.74378 12.3191 9.26104 12.916 9.4202C13.0552 9.69872 13.1149 10.017 13.3537 10.2359C13.5526 10.4149 13.851 10.8526 14.1296 10.8924C14.1693 10.8924 14.1892 10.9123 14.229 10.9322C14.2489 11.0516 14.2887 11.151 14.3882 11.2107C14.5075 11.2704 14.607 11.1311 14.7662 11.1112C14.7662 11.1112 15.184 11.6484 15.4227 11.4495C15.5023 11.3699 15.5023 11.2107 15.6813 11.2107C16.2185 11.2306 16.6363 11.0118 16.9347 10.5343C17.0541 10.3155 17.3923 10.3553 17.5713 10.1961C17.6509 10.1165 17.7703 10.0568 17.8697 10.0369C17.9891 10.017 18.1881 10.0966 18.2279 10.0369C18.4069 9.7783 18.7053 9.7982 18.9242 9.67883C19.1032 9.57936 19.3619 9.24115 19.4414 9.16157C19.521 9.10188 19.7399 9.08199 19.7598 9.08199C20.0383 9.00241 20.655 8.92283 20.5953 8.92283C20.5754 8.90294 20.655 8.78357 20.6351 8.96262C20.6351 9.0223 20.6152 9.0223 20.6351 8.98252C20.655 8.90294 20.8142 8.6443 20.8739 8.62441C20.9335 8.60452 20.6948 8.96262 20.655 8.98252C20.6351 8.98252 21.033 8.78357 20.9534 8.86315C20.655 9.0422 20.5953 9.0223 20.655 9.0223C20.6948 9.0223 20.7744 9.0422 20.7943 9.06209C20.8142 9.08199 20.7943 9.08199 20.7744 9.08199C20.7346 9.14167 20.655 9.22125 20.5357 9.26104C20.3566 9.36051 20.4163 9.59925 20.4959 9.83799C20.4959 9.91757 20.4959 9.97725 20.4959 10.0369H20.476C20.1378 10.1961 19.9786 10.4746 19.8592 10.773C19.8393 10.8128 19.8194 10.8526 19.8194 10.8924C19.7598 11.0317 19.7001 11.1908 19.6404 11.3301C19.4016 11.7877 19.0037 12.1657 19.0634 12.7625C18.8446 12.9814 18.5661 13.1604 18.4467 13.4588C18.3472 13.6976 18.0488 14.1352 18.1085 14.4138C18.1483 14.6127 17.9692 14.7918 18.208 15.0106C18.2478 14.9509 18.4865 15.1101 18.4467 15.1698C18.586 15.2692 18.7252 15.3687 18.765 15.5279C18.7053 15.6671 18.6656 15.8263 18.765 15.9258C18.8446 16.0054 19.0237 15.9656 19.0435 16.1247C19.143 16.6619 19.4215 17.0399 19.9587 17.2189C20.1974 17.2985 20.2173 17.6367 20.4163 17.776C20.5158 17.8357 20.5754 17.9351 20.6351 18.0346C20.6749 18.1341 20.6351 18.3529 20.7147 18.3927C20.9932 18.5121 21.033 18.8105 21.1922 18.9896C21.3116 19.1288 21.7094 19.3477 21.789 19.4073C21.8686 19.467 21.9283 19.6859 21.9283 19.7058C22.0675 19.9644 22.2267 20.5215 22.2665 20.5413C22.2864 20.5215 22.4257 20.5612 22.2466 20.601C22.1869 20.601 22.1869 20.601 22.2267 20.601C22.3262 20.601 22.5848 20.7005 22.6246 20.7602C22.6445 20.8199 22.2665 20.6607 22.2466 20.6209C22.2466 20.601 22.5251 20.9591 22.4455 20.8995C22.2068 20.6408 22.2068 20.5811 22.2267 20.6408C22.2466 20.6806 22.2466 20.7602 22.2068 20.7801C22.2068 20.8199 22.1869 20.8 21.9681 20.5811C21.8487 20.422 21.61 20.5413 21.411 20.6408C21.3314 20.6607 21.2718 20.6607 21.2121 20.6806V20.6607C20.9932 20.3623 20.6948 20.2628 20.3765 20.2031C20.3367 20.1832 20.2969 20.1832 20.2571 20.1832C20.098 20.1633 19.9388 20.1236 19.7995 20.0838C19.3022 19.9445 18.8446 19.6262 18.2875 19.8052C18.0289 19.6461 17.8101 19.4073 17.4918 19.3278C17.2331 19.288 16.7557 19.0691 16.497 19.1686C16.318 19.2482 16.0991 19.1089 15.94 19.3875C15.9997 19.4272 15.9201 19.6461 15.8405 19.6461C15.7808 19.6262 15.7211 19.5864 15.6614 19.6063C15.5222 19.6461 15.562 19.8052 15.4625 19.9246C15.4625 19.9246 14.806 19.8052 14.7463 20.1037C14.7264 20.2031 14.8458 20.3225 14.7264 20.422C14.3285 20.7602 14.1296 21.1581 14.229 21.6952C14.2688 21.934 13.9704 22.113 13.9505 22.3518C13.9306 22.4711 13.8908 22.5706 13.8112 22.6502C13.7317 22.7298 13.5327 22.7894 13.5327 22.869C13.5526 23.1674 13.3139 23.3266 13.2144 23.5653C13.1746 23.6648 13.1348 23.8439 13.0751 24.0428L12.9359 24.0229C12.8364 24.2219 12.7568 24.4606 12.7568 24.6993C12.7568 25.1768 12.6772 25.2962 12.4783 25.1967C12.3191 25.0773 12.2793 25.336 12.2992 25.2962L12.2793 25.3161C12.2594 25.336 12.1998 25.1569 12.2992 25.4951C12.3788 25.7538 12.339 25.893 12.2793 25.6543C12.16 25.0972 12.2396 25.1967 12.1998 25.4156C12.1998 25.4354 12.1997 25.4752 12.1798 25.515C12.16 25.6344 12.1003 25.8134 12.0804 25.8134C12.0605 25.7936 12.1401 25.3758 12.1401 25.4156C12.1003 25.4951 12.0207 25.515 12.1003 25.336C12.1799 25.1967 12.1202 25.2763 12.1003 25.2365L12.0406 24.9182C12.0207 24.759 12.0008 24.6397 11.9411 24.381C11.9013 24.1025 12.0008 23.8638 11.8416 23.5653C11.6825 23.2669 11.7024 23.1078 11.6626 22.869C11.583 22.3518 11.6427 21.7748 11.2249 21.3371C11.2448 21.0188 11.3642 20.7005 11.2448 20.3822C11.1652 20.1236 11.0857 19.5665 10.8668 19.3875C10.7673 19.3079 10.7077 19.1487 10.6082 19.0691C10.6082 18.8702 10.7673 18.711 10.6877 18.532C10.6281 18.4126 10.4689 18.4723 10.3495 18.4126C10.3495 18.4126 10.3297 17.7362 10.0312 17.7561C9.93177 17.7561 9.83229 17.8953 9.71292 17.7959ZM20.4561 15.5876H20.4362C20.4362 15.5478 20.4362 15.508 20.4362 15.4682H20.476C20.476 15.5279 20.4958 15.5677 20.4561 15.5876ZM20.4561 16.443C20.4163 16.5027 20.4163 16.6022 20.3566 16.642C20.2969 16.6818 20.1974 16.6818 20.1377 16.7017C20.1775 16.6221 20.1775 16.5425 20.2372 16.5027C20.2969 16.4629 20.3964 16.4629 20.4561 16.443ZM20.4561 13.996C20.3964 13.9562 20.3566 13.8766 20.3168 13.8169C20.3964 13.8169 20.476 13.797 20.5357 13.8368C20.5953 13.8766 20.6351 13.9562 20.6749 14.0159C20.6152 14.0159 20.5357 14.0159 20.476 13.996C20.4959 13.996 20.476 13.996 20.4561 13.996ZM20.4163 12.2055C20.4163 12.1856 20.4561 12.1856 20.476 12.2055C20.6152 12.2651 20.6948 12.4243 20.655 12.5039C20.6351 12.5039 20.6152 12.5238 20.5953 12.5238C20.4561 12.4641 20.3566 12.285 20.4163 12.2055ZM19.5807 14.2546C19.5807 14.2745 19.521 14.2745 19.4812 14.2944L19.4216 14.1949C19.4613 14.1949 19.5011 14.1551 19.5409 14.175C19.5608 14.1551 19.6006 14.2148 19.5807 14.2546ZM10.1108 22.5109C10.1307 22.491 10.1307 22.4711 10.1506 22.4711C10.2899 22.4512 10.4689 22.5308 10.4689 22.6104C10.4689 22.6303 10.449 22.6502 10.4291 22.6502C10.2899 22.69 10.1307 22.6104 10.1108 22.5109Z" fill="white"/>
</svg>
