<svg width="81" height="80" fill="none" xmlns="http://www.w3.org/2000/svg"><path d="M79.827 18.508c.466.012.527.185.497.572-.037.477.272.923.285 1.424.006.381-.097.78.181 1.132.06.077.018.244-.006.363-.103.53-.297 1.043-.218 1.603.018.143.043.25.115.375.237.393.23.81.06 1.221-.078.197-.217.322.013.542.115.108.115.441.03.614-.194.405.23.864-.157 1.263-.073.077.194.417.181.62-.042.554-.048 1.114-.06 1.668-.012.673-.206 1.328-.03 2.031.17.673.054 1.418.218 2.091.109.441-.206.68-.237 1.03-.048.537.134 1.05.103 1.58-.018.399-.139.792-.175 1.167-.037.381-.394.864.078 1.233.067.054.097.102.061.173-.2.393-.073.804-.097 1.203-.03.477.055.93.06 1.395.007.917-.12 1.823-.2 2.722-.03.376.086.953-.381 1.27-.055.035-.097.077-.012.148.327.256.321.256.127.614-.206.375-.073.81-.127 1.203-.067.506-.012 1.048-.073 1.585-.048.41.164.816-.279 1.191-.181.161-.03.65-.054.99-.043.482-.17.928-.321 1.352-.146.428-.012.911-.334 1.304-.212.262-.424.507-.484.9-.055.351-.436.625-.6.989a.33.33 0 0 1-.309.184c-.079 0-.133.042-.14.131-.011.632-.254 1.073-.975 1.484-.236.137-.34.345-.509.512-.176.173-.279.37-.57.22-.066-.03-.193 0-.26.042-.624.405-.618.411-1.484.459-.019 0-.03-.006-.049-.012-.036.638-.672.16-.945.495-.218.262-.715.22-1.079.34-.406.124-.8.291-1.211.404-.085.024-.17.072-.255.066a4.752 4.752 0 0 0-2.605.518c-.17.084-.315-.083-.497-.09a3.052 3.052 0 0 0-1.472.316c-.315.15-.08.352-.025.477.213.5.497.971.703 1.471.473 1.138.897 2.3 1.376 3.438.327.78.696 1.59 1.15 2.264.352.524.558 1.114.807 1.638.266.566.527 1.203.666 1.83.055.243-.042.565.11.839.036.066-.007.25-.019.25-.515.036-.333.632-.666.799-.158.077-.219.524-.51.137-.048.1-.424.065-.145.31.024.023.049.041.073.065-.042.024-.085.053-.133.071-.624.257-1.224.4-1.927.132a22.937 22.937 0 0 0-1.672-.573c-1.23-.369-2.29-1.078-3.448-1.584-.709-.316-1.454-.56-2.145-.918-.824-.423-1.636-.852-2.35-1.441-.51-.417-1.116-.691-1.606-1.132-.455-.411-.849-.9-1.315-1.263-.424-.328-.406-1.013-1.06-1.132-.103-.018-.388-.37-.48-.578-.345-.75-1.247-1.013-1.526-1.793-.024-.066-.073-.19-.224-.048-.2.19-.212.137-.54-.03-.109-.06-.357-.035-.424.167-.097.292-.278.197-.509.19-1.272-.047-2.55-.053-3.81.144-.516.077-.946.047-1.346-.304-.109-.095-.26-.226-.43-.113-.224.149.085.16.079.244-.012.209-.17.286-.34.226-.315-.113-.642-.047-.95-.071-.667-.048-1.358-.107-2.037.03-.236.047-.52 0-.733-.042-.77-.167-1.545.197-2.272-.036-.588-.184-1.09.173-1.642.096-.321-.042-.636.035-.975-.137-.2-.108-.564.119-.86-.066-.061-.042-.43-.214-.237.179-.255-.084-.424.184-.654.155-.594-.078-1.176-.167-1.788-.15-1.012.037-2.03-.112-3.047-.07-.122.005-.2-.054-.297-.102-.249-.125-.51-.215-.8-.083-.194.089-.424.208-.515-.138-.006-.023-.103-.053-.127-.041-.46.316-.879.334-1.327-.06-.049-.041-.443.012-.606.06-.406.113-.77-.012-1.109-.09-1.042-.238-2.096-.166-3.139-.244-.484-.035-.969-.012-1.454-.035-.382-.018-.618-.388-1.024-.304-1.175.226-2.326-.161-3.49-.185-.278-.006-.642-.137-.939.137-.097.095-.357.09-.563.048-1.376-.274-2.793-.286-4.145-.697-.606-.185-1.12-.572-1.666-.888-.388-.226-.74-.518-1.139-.727-.54-.28-1.079-.56-1.309-1.18-.018-.047-.109-.077-.17-.107-.43-.226-.769-.512-.95-.989-.128-.333-.649-.506-.704-.715-.078-.297-.115-.613-.339-.828-.648-.613-.97-1.417-1.054-2.228-.06-.56-.358-1.072-.273-1.656.03-.226-.054-.453.26-.566.116-.041.17-.178.037-.345-.297-.364-.43-.763-.309-1.251.097-.388-.121-.775-.127-1.186-.006-.846-.194-1.698-.194-2.544 0-.792-.285-1.572-.164-2.335.116-.745-.309-1.52.17-2.246.085-.125-.182-.44-.2-.673-.06-.805-.121-1.615-.115-2.425.012-1.203.242-2.4.17-3.616-.03-.548-.085-1.162.175-1.71.091-.19-.17-.298-.151-.518.048-.495.067-.995.054-1.501-.012-.632-.151-1.27-.09-1.883.06-.62-.085-1.233.03-1.84.048-.263-.073-.49-.085-.734-.055-.953.115-1.9-.079-2.86-.103-.517.055-1.078.067-1.62.006-.482-.006-1.084.176-1.412.297-.548-.164-.947.006-1.435.315-.906-.164-1.847.03-2.788.188-.906.121-1.86.297-2.753.085-.435.018-.947.345-1.352.11-.131.097-.37.127-.56.043-.244.007-.518.11-.727.424-.81.448-1.745.836-2.556.327-.685.696-1.37 1.375-1.81.164-.108.321-.215.412-.388.024-.048.06-.13.085-.125.988.03 1.636-.852 2.581-.816.048 0 .115-.042.151-.024.534.28 1.067.066 1.515-.131.54-.232 1.127-.048 1.654-.334.188-.1.485-.053.703-.196.146-.096.31-.102.449.018.06.047.09.202.193.095.582-.65 1.424-.495 2.121-.518.915-.03 1.739-.358 2.611-.483.455-.065.903-.22 1.364-.054.127.042.182.006.194-.077.036-.214.194-.185.327-.179 1.236.06 2.466-.143 3.696-.143 1.12 0 2.23-.166 3.357-.119 1.314.054 2.58.4 3.89.405.75.006 1.484.37 2.241.072.485.405.776-.012 1.109-.25.073-.048.14-.054.2-.012.4.315.897.071 1.351.19.249.066.69-.06 1.048-.09.176-.011.382-.28.43.12 0 0 .104.012.14-.012.4-.244.89-.036 1.29-.274.237-.137.503-.202.734.036.036.036.097.101.115.09.539-.251 1.09-.042 1.623-.007.546.036 1.049-.256 1.66.006.413.173 1.11.352 1.624-.095.073-.06.219-.101.303-.072.382.137.812.036 1.127.108.413.095.703.172 1.055-.078.018-.012.545-.155.278.286-.024.054-.006.125.055.125.067 0 .17-.018.188-.06.309-.667.945-.345 1.375-.327.37.012.69-.095 1.024-.137.158-.024.315-.125.46-.024.291.197.558.381.891.066.067-.066.237-.024.358.041.151.066.34.167.46.126.63-.215 1.267.196 1.872-.018.303-.108.382.196.606.178.467-.035.958.286 1.406-.113.127-.113.273.143.351.131.758-.101 1.503.15 2.273.066.605-.066 1.296-.215 1.854.268.157.137.357.065.442-.072.176-.31.43-.196.697-.244.697-.13 1.375.286 2.072-.042.357-.172.757.066 1.103.155.66.173 1.302.155 1.957.072a.353.353 0 0 1 .157.006c.582.19.582.107 1.285.125.497.012 1.042-.036 1.527.316.212.154.593-.054.92.041.497.143 1.037.215 1.528.286.557.084 1.011.477 1.63.387.436-.06.836.322 1.248.5.193.084.406.18.587.198.606.047.945.446 1.151.9.17.374.412.547.77.613.23.041.388.172.418.357.085.554.533.828.824 1.221.285.382.824.68.812 1.335 0 .214.188.691.479.977.236.232.424.554.315.96-.08.28.242.446.333.696.23.643.236 1.323.406 1.972.133.5.273.989.279 1.52.018.231-.043.327-.28.44ZM47.58 58.661c.042-.494.333-.768.72-.625.528.196 1.128-.143 1.606.262.025.024.11 0 .158-.018.382-.179.776-.048 1.151 0 .218.03.412.226.618.34-.12.196-.297-.048-.424.077.067.197.212.286.382.226.254-.089.412.161.406.233-.049.375.2.232.345.208.37-.053.715-.119.758.423.006.113.23.322.248.31.358-.197.497.185.74.244.417.107.32.28.03.542.236-.03.393.066.478-.107.091-.179.218-.131.297-.03.327.43 1.03.566 1.006 1.263 0 .078.048.155.127.143.315-.047.418.09.503.376.018.071.242.31.436.375.412.137.752.274.849.798.03.167.248.5.496.632.43.226.824.512 1.042.923.213.405.86.4.867.96.436-.227.497.339.6.339.387.006.339.482.72.5.292.012.292.12-.023.59.684-.5 1.12-.131 1.532.167.31.22.63.399 1.036.596-.163-.388-.333-.668-.502-.954-.667-1.137-1.17-2.353-1.582-3.604-.206-.631-.4-1.263-.49-1.936-.128-.93-.649-1.77-.776-2.723-.043-.315-.303-.62.176-.816.018-.006.036-.06.036-.06-.503-.31.024-.553.121-.696.412-.59.679-1.34 1.557-1.526.212-.047.564-.154.667-.285.46-.548 1.078-.697 1.727-.805.218-.035.509.024.654-.095.515-.411 1.175-.37 1.69-.661.225.256-.375.19-.084.423.139.113.157.101.363-.25.018-.024.024-.066.06-.084.849-.363 1.71-.643 2.63-.786.8-.125 1.66-.215 2.042-1.15.23-.572.285-1.174.479-1.752.145-.434.182-.929.23-1.394.043-.417.11-.828.152-1.245.042-.435.218-.834.194-1.292-.03-.668-.243-1.359 0-2.008.187-.507.078-1.013.139-1.52.054-.446.248-.84.23-1.328-.042-1.4-.018-2.8-.145-4.194-.146-1.549.448-3.062.139-4.61-.036-.192.303-.364.164-.585-.273-.435-.122-.905-.194-1.352-.091-.578.09-1.132 0-1.728-.121-.774-.121-1.65.09-2.365.152-.512-.63-1.007.08-1.4-.013-.012-.019-.03-.03-.041-.486-.382-.177-.882-.189-1.323-.006-.524.164-1.067.073-1.573-.145-.81-.29-1.602-.182-2.437.024-.166.037-.494.012-.512-.412-.345-.266-.875-.454-1.299-.29-.655-.37-1.405-.576-2.114-.29-1.001-.733-1.9-1.448-2.675-.375-.411-.8-.668-1.37-.715a34.406 34.406 0 0 1-2.053-.239c-.764-.107-1.515-.291-2.278-.351-1.11-.083-2.224-.09-3.339-.125-.412-.012-.497-.292-.388-.566.097-.238-.084-.19-.151-.238-.103-.084-.164-.024-.248.083-.182.232-.037.459-.007.703-.381.03-.715.036-.933-.292-.084-.131-.157-.125-.254-.042-.364.316-.873.257-1.224.203-.648-.095-1.285.363-1.909-.018-1.46.244-2.896-.19-4.362-.09-1.351.09-2.672-.523-4.047-.273-.843.155-1.71-.334-2.54.095a.14.14 0 0 1-.108-.006c-.279-.179-.564-.149-.891-.131-.697.036-1.424.298-2.084-.167-.03-.024-.103.006-.158.018-.745.095-1.472.31-2.236.298-.6-.012-1.187-.232-1.763-.19-1.327.095-2.635-.156-3.968-.019-1.091.108-2.212-.047-3.315-.023-1.066.018-2.15-.102-3.205.16-.66.161-1.309-.017-1.969.06-.654.078-1.375.31-1.97-.244-.023-.024-.12.03-.181.053-.151.066-.115.15-.024.239.133.13.054.178-.085.172-1.03-.047-2.066.155-3.084.072-.533-.042-1.09-.072-1.581-.012-1.012.125-2.018-.048-3.03.137-.788.143-1.618.018-2.423.083-1.012.09-2.024.09-3.024-.065-.74-.113-1.394.214-2.09.328a.497.497 0 0 0-.4.458c-.024.53-.285 1.03-.26 1.537.036.846-.364 1.62-.28 2.467.019.166-.012.429-.272.524-.043.018-.121.071-.055.16.546.775-.097 1.657.23 2.443.158.376-.218.537-.272.81-.091.465.46.858.2 1.383-.012.024.06.292.024.458-.145.626-.176 1.3-.17 1.907.007.476-.357 1.066.134 1.53.066.066 0 .215-.103.275-.34.19-.291.572-.164.75.249.34.115.698.212 1.031.134.441-.09.894 0 1.293.182.804.049 1.632.273 2.419.024.089 0 .214-.091.232-.351.09-.212.28-.127.477.254.595.066 1.197.006 1.793-.024.256-.115.488.024.762.127.245.176.65.09.81-.223.46-.03.829.05 1.234.018.101.06.244.012.31-.721 1.054.133 2.275-.382 3.348-.012.017.024.06.042.095.333.614.079 1.245-.079 1.805-.145.518.291.06.273.25-.236.256-.242.477-.121.864.176.578.212 1.275.176 1.835-.03.524.327 1.025.06 1.537-.218.423.006.923-.218 1.352.333-.018.618.286.424.441-.424.346-.042.727-.03 1.013.024.596.388 1.174-.073 1.77-.09.112-.036.303.012.464.176.632.388 1.251.37 1.924-.006.209.067.483.267.65.315.268.636.53.963.786.49.381.987 1.019 1.539.989.854-.042 1.593.429 2.448.298a6.196 6.196 0 0 1 1.054-.072c.527.006 1.054.108 1.587.048.285-.036.485.066.71.25.133.107.248-.435.557-.25.46.268 1.006.19 1.472.351.527.185 1.054.06 1.54.06.472 0 .98-.095 1.405.078.406.172.757-.072 1.139.053.454.15 1.012-.077 1.393.054.812.274 1.752-.078 2.46.542.891-.22 1.83.345 2.709-.143.048-.03.157-.024.206.012.388.274.806.018 1.205.071.37.048.721.352 1.134.108.078-.048.339.03.345.071.097.602.406.173.575.101.4-.166.819-.012 1.176-.06.612-.083 1.224.06 1.836-.1.212-.054.709-.126.727-.09.176.393.285.16.448.006.06-.054.224-.066.31-.024.581.268 1.199.131 1.793.185.181.018.424.065.533-.024.315-.256.6-.077.763.084.249.25.473.142.6 0 .46-.49 1.06.297 1.497-.197 0 0 .079.036.079.06.06.399.363.184.49.13.576-.232 1.127-.22 1.727-.06.285.078.467.072.321.466.182-.22.267-.495.576-.28.066.047.157.023.236-.048.46-.352.842-.298 1.2.244Zm3.641 1.204c.285.077.546-.203.624.017.206.62.364.298.54.006.042-.071.26.108.175-.113-.024-.071-.145-.184-.17-.172-.345.148-.78-.144-1.169.262Z" fill="#003C1F"/><path d="M58.888 36.803c.406.161.303.393.139.578-.6.697-.86 1.62-1.587 2.228-.116.095-.176.268-.243.411-.327.655-.806 1.144-1.545 1.34-.085.024-.236.024-.2.12.315.744-.533.893-.739 1.376-.188.435-.606.745-.963 1.078-.764.71-1.515 1.424-2.279 2.139-.127.119-.212.304-.448.232-.073-.024-.145-.006-.17.084-.272 1.006-1.175 1.507-1.83 2.21-.763.816-1.805 1.299-2.58 2.09-.249.251-.68.448-.612.924 0 .018-.037.072-.049.066-.479-.066-.533.405-.788.62-.527.434-1.03.899-1.49 1.31-.055-.167-.448-.208-.697.095-.376.46-.812.78-1.412.882-.03.006-.072 0-.097.018-.412.304-.478.322-.648.334-.37.023-.74-.072-1.036-.227-.479-.25-1.042-.244-1.484-.554-.219-.155-.28.197-.546.155-.763-.12-1.4-.476-2.024-.864-.236-.149-.49-.274-.672-.506-.236-.304-.636-.107-.951-.274-.733-.382-1.618-.435-2.315-.906-.788-.536-1.745-.786-2.472-1.382-.315-.256-.618-.387-.957-.56-.455-.226-.782-.697-1.158-1.066-.036-.036.037-.15-.078-.155-.612-.024-.612-.083-1.09-.554-.219-.215-.552-.328-.795-.572-.278-.28-.393-.667-.715-.923-.187-.155.006-.245.176-.322.085-.036.345-.107.176-.292-.152-.173-.176.071-.26.119-.23.125-.395.167-.607-.12-.714-.958-1.52-1.852-2.223-2.817-.612-.828-1.303-1.62-1.63-2.621-.152-.465-.515-.864-.485-1.4 0-.03-.315-.084-.388-.292-.12-.328-.642-.536-.296-1.001-.297-.054-.382-.292-.497-.518a13.245 13.245 0 0 1-1.115-2.854c-.091-.34-.436-.447-.491-.798-.194-1.198-.515-2.377-.303-3.605.006-.047.049-.119.024-.142-.442-.626-.2-1.311-.2-1.978 0-.292.14-.554.03-.882-.102-.316.14-.459.625-.429-.66-.34-.236-.786-.134-1.114.31-.965.727-1.895 1.315-2.735.206-.297.43-.577.655-.863.054-.072.133-.125.188-.197.127-.173.708-.631.878-.68-.073-.154-.315-.017-.327-.142-.012-.131.115-.238.254-.304.606-.28.83-.983 1.473-1.263.351-.155.678-.34 1.066-.423.2-.042.376-.196.551-.316.515-.333 1.073-.482 1.69-.494.189-.006.383-.328.552-.31.879.084 1.551-.56 2.363-.602.576-.03 1.176-.452 1.751.018.06.048.303-.006.303-.018.018-.583.412-.226.552-.166.52.226 1.09.149 1.617.292.57.155 1.2.196 1.709.464 1.103.566 2.37.828 3.296 1.758.285.286.66.548 1.048.768.51.292.836.799 1.29 1.174.316.262.437.232.655-.06.776-1.019 1.745-1.805 2.86-2.46.448-.262.873-.15 1.32-.203-.005-.262-.272-.22-.441-.351.636-.28 1.254-.542 1.86-.822.151-.066.224.113.351.065.067-.024.4.09.103-.167-.048-.041.06-.166.103-.125.315.292.364-.107.51-.196a5.373 5.373 0 0 1 1.932-.674c.376-.06.806-.178 1.127.203.067.078.188.113.273-.012.181-.268-.164-.274-.237-.429a1.04 1.04 0 0 1 .582-.071c.067.172-.152.214-.188.417.285-.12.497.238.721.053.145-.125-.036-.303-.164-.482.491 0 .946-.06 1.364.018.442.083.806.405 1.2.62.09.047.084.25.284.136.6-.34 1.085.173 1.624.262.303.048.74.15.854.358.382.69 1.303.75 1.642 1.406.237.47.764.727.867 1.257.03.149.188.173.224.167.43-.102.551.202.66.488.152.387.515.602.758.906.37.464.57.97.703 1.5.242.936.618 1.83.8 2.795.2 1.066.133 2.139.218 3.205.084 1.067-.334 2.05-.437 3.08-.018.167-.151.232-.212.358-.194.405-.345.822-.34 1.263.007.536-.278.976-.508 1.393-.218.388-.29.84-.594 1.198-.151.185-.273.292-.57.262ZM39.19 29.547c-.376.268-.618.602-.957.834-.273.185-.467.5-.818.554-.316.048-.546-.447-.921-.173 0 0-.049-.041-.067-.071-.182-.387-.327-.799-.824-.906-.085-.018-.067-.095-.03-.167.084-.148.066-.208-.061-.208-.182-.006-.376.006-.479-.149-.32-.483-.818-.774-1.218-1.168-.908-.887-1.72-1.87-2.896-2.466-.654-.334-1.333-.518-2.017-.292-.764.244-1.558.37-2.327.572-.727.19-1.151.56-1.49 1.144-.643 1.09-.68 2.252-.449 3.45.079.41.037.821.206 1.232.624 1.543 1.37 3.033 2.072 4.54.57 1.233 1.273 2.389 2.054 3.497.521.739 1.11 1.442 1.527 2.228.721 1.37 2.024 2.133 3.163 3.05.436.352.89.685 1.29 1.084.467.46 1 .823 1.558 1.174.442.28 1.012.346 1.357.75-.067.257-.345.078-.467.34.31-.184.649.233.885-.286.442-.983 1.357-1.674 1.812-2.663.066-.149.206-.303.424-.256.181.036.26-.077.206-.196-.158-.364.163-.298.32-.388.074-.035.243.072.189-.143-.067-.262.127-.363.309-.494.375-.28.703-.632 1.103-.852.375-.209.654-.465.933-.775.339-.369.757-.714 1.072-1.072.988-1.12 2.084-2.133 3.15-3.17.322-.309.528-.887 1.212-.78-.181-.172-.266-.333-.09-.512.327-.334.6-.774 1.157-.476.133-.233-.34-.352-.097-.46.321-.142.321-.416.454-.637.194-.315.37-.655.91-.583-.383-.477.017-.733.217-1.013.715-.995 1.248-2.085 1.545-3.253.267-1.043.17-2.139.061-3.211-.067-.65-.121-1.305-.648-1.8-.376-.357-.794-.696-1.103-1.107-.552-.745-1.327-.751-2.096-.65-.703.096-1.394.304-2.085.495-.896.244-1.769.595-2.666.822a6.837 6.837 0 0 0-2.06.93c-.503.327-.654 1.113-.32 1.637.047.078.041.132-.025.173-.346.215-.673.53-1.048.608-.521.101-.194.274-.073.44-.242.043-.406.013-.49-.196-.152-.351-.492-.149-.546-.047-.249.488-.727.673-1.164.97.122.024.219.054.346.096Z" fill="#003C1F"/></svg>